<?xml version="1.0" encoding="UTF-8" standalone="no"?>
<!DOCTYPE svg  PUBLIC '-//W3C//DTD SVG 1.1//EN'  'http://www.w3.org/Graphics/SVG/1.1/DTD/svg11.dtd'>
<svg xmlns="http://www.w3.org/2000/svg">
<defs>
<font id="BlissPro-Bold" horiz-adv-x="550">
<font-face underline-position="-50" font-weight="700" descent="-200" panose-1="2 0 8 3 5 0 0 2 0 4" units-per-em="1000" unicode-range="U+0020-25CA" bbox="-178 -241 1203 843" x-height="473" underline-thickness="50" font-family="BlissPro" ascent="800" cap-height="659"/>
<missing-glyph horiz-adv-x="1000"/>
<glyph glyph-name=".notdef" horiz-adv-x="1000"/>
<glyph glyph-name=".null" horiz-adv-x="0"/>
<glyph glyph-name="nonmarkingreturn" horiz-adv-x="333"/>
<glyph glyph-name="space" horiz-adv-x="216" unicode=" "/>
<glyph glyph-name="exclam" horiz-adv-x="269" unicode="!" d="M134 -9q-28 0 -47 20t-19 49t19 48.5t47 19.5t47.5 -19.5t19.5 -48.5t-19.5 -49t-47.5 -20zM99 194q-16 84 -20 157t-4 261v47h119v-48q0 -188 -4.5 -261t-20.5 -156h-70z"/>
<glyph glyph-name="quotedbl" horiz-adv-x="395" unicode='&quot;' d="M245 474l-12 234h111l-10 -234h-89zM65 474l-13 234h112l-11 -234h-88z"/>
<glyph glyph-name="numbersign" horiz-adv-x="715" unicode="#" d="M285 259h113l30 141h-112zM117 0l36 166h-110v93h130l30 141h-110v93h131l36 166h112l-36 -166h112l36 166h113l-36 -166h110v-93h-130l-31 -141h111v-93h-131l-35 -166h-113l36 166h-113l-35 -166h-113z"/>
<glyph glyph-name="dollar" horiz-adv-x="545" unicode="$" d="M211 -86v103q-83 9 -150 53l47 89q72 -47 138 -47q101 0 101 70q0 32 -27.5 57t-67 45t-79 43t-67 62.5t-27.5 91.5q0 61 40 108t114 56v98h87v-96q68 -7 116 -33v-100q-78 40 -149 40q-39 0 -62 -16.5t-23 -47.5t27.5 -55.5t67 -44t78.5 -42t66.5 -62t27.5 -92.5 q0 -71 -45 -117.5t-126 -58.5v-104h-87z"/>
<glyph glyph-name="percent" horiz-adv-x="889" unicode="%" d="M187 0l416 659h97l-415 -659h-98zM675 62q32 0 48.5 28.5t16.5 76.5t-16.5 76t-48.5 28t-49 -28t-17 -76t17 -76.5t49 -28.5zM675 -10q-71 0 -115.5 45.5t-44.5 131.5q0 85 44.5 130.5t115.5 45.5t115.5 -45.5t44.5 -130.5q0 -86 -44.5 -131.5t-115.5 -45.5zM214 384 q32 0 48.5 28.5t16.5 76.5t-16.5 76t-48.5 28t-49 -28t-17 -76t17 -76.5t49 -28.5zM214 312q-71 0 -115.5 45.5t-44.5 131.5q0 85 44.5 130.5t115.5 45.5t115.5 -45.5t44.5 -130.5q0 -86 -44.5 -131.5t-115.5 -45.5z"/>
<glyph glyph-name="ampersand" horiz-adv-x="763" unicode="&amp;" d="M299 416q81 43 81 100q0 26 -18.5 44.5t-53.5 18.5q-34 0 -51.5 -17.5t-17.5 -42.5q0 -43 60 -103zM292 86q67 0 125 46q-83 75 -162 165q-78 -41 -78 -107q0 -45 32 -74.5t83 -29.5zM497 66q-97 -76 -223 -76q-98 0 -159 54t-61 138q0 122 137 186q-27 31 -39.5 47 t-24 43.5t-11.5 57.5q0 63 52.5 106t140.5 43t140 -42t52 -108q0 -101 -134 -170q60 -66 138 -141q59 63 83 142l101 -25q-37 -112 -107 -184q56 -48 105 -48q13 0 27 4l22 -88q-28 -11 -68 -11q-83 0 -171 72z"/>
<glyph glyph-name="quotesingle" horiz-adv-x="215" unicode="&apos;" d="M64 474l-12 234h111l-10 -234h-89z"/>
<glyph glyph-name="parenleft" horiz-adv-x="348" unicode="(" d="M243 -236q-97 105 -133.5 226t-36.5 278t36.5 278.5t133.5 228.5l80 -60q-68 -87 -96.5 -185t-28.5 -262t28 -262t96 -182z"/>
<glyph glyph-name="parenright" horiz-adv-x="348" unicode=")" d="M26 -176q68 84 96 182t28 262t-28 262.5t-97 184.5l80 60q97 -107 133.5 -228.5t36.5 -278.5t-36.5 -278t-133.5 -226z"/>
<glyph glyph-name="asterisk" horiz-adv-x="488" unicode="*" d="M201 330v10q0 30 11 84t12 67q-10 -7 -33 -29t-47 -41t-47 -31l-43 74q28 18 86 37.5t65 22.5q-3 1 -62 21.5t-88 38.5l43 74q30 -15 76.5 -56.5t49.5 -43.5q-1 9 -11.5 62t-10.5 84v14h85v-13q0 -31 -11 -83.5t-12 -63.5q1 1 49 42.5t79 57.5l42 -75q-28 -18 -86 -37 t-65 -22q7 -3 65 -22.5t86 -37.5l-43 -75q-30 15 -76 56t-52 45q1 -6 12 -60t11 -86v-14h-85z"/>
<glyph glyph-name="plus" d="M219 0v201h-179v99h179v196h111v-196h181v-99h-181v-201h-111z" unicode="+"/>
<glyph glyph-name="comma" horiz-adv-x="263" unicode="," d="M34 -122q46 78 46 155q0 31 -6 66l110 19q7 -29 7 -63q0 -113 -88 -210z"/>
<glyph glyph-name="hyphen" horiz-adv-x="366" unicode="-" d="M52 198v100h263v-100h-263z"/>
<glyph glyph-name="period" horiz-adv-x="263" unicode="." d="M131 -9q-27 0 -46.5 20t-19.5 49t19.5 48.5t46.5 19.5q28 0 47.5 -19.5t19.5 -48.5t-19.5 -49t-47.5 -20z"/>
<glyph glyph-name="slash" horiz-adv-x="397" unicode="/" d="M13 -35l252 731h119l-252 -731h-119z"/>
<glyph glyph-name="zero" horiz-adv-x="572" unicode="0" d="M286 91q59 0 85 59t26 178t-26 177.5t-85 58.5t-85 -58.5t-26 -177.5t26 -178t85 -59zM286 -10q-112 0 -175 87t-63 251q0 163 63 250t175 87t175 -87t63 -250q0 -164 -63 -251t-175 -87z"/>
<glyph glyph-name="one" horiz-adv-x="445" unicode="1" d="M223 0v540l-153 -69l-40 93l220 100h91v-664h-118z"/>
<glyph glyph-name="two" horiz-adv-x="537" unicode="2" d="M28 0q6 78 33.5 141t63 100t76.5 70.5t74.5 56t56 51.5t22.5 61q0 43 -29 63.5t-73 20.5q-76 0 -170 -45l-32 93q110 53 220 53q103 0 157 -47.5t54 -125.5q0 -52 -26.5 -95.5t-66.5 -75.5t-81.5 -62.5t-76.5 -71t-46 -85.5h303v-102h-459z"/>
<glyph glyph-name="three" horiz-adv-x="556" unicode="3" d="M33 27l34 95q69 -31 147 -31q149 0 149 102q0 65 -69 83q-28 8 -81 8h-87v96h70q147 0 147 96q0 41 -25.5 64.5t-75.5 23.5q-74 0 -159 -45l-32 93q102 53 206 53t158.5 -51t54.5 -126q0 -100 -101 -143v-2q57 -11 89 -50.5t32 -97.5q0 -91 -68 -148t-200 -57 q-106 0 -189 37z"/>
<glyph glyph-name="four" horiz-adv-x="588" unicode="4" d="M172 257q6 0 38 1t45 1h78v94q0 15 6 129zM39 161v80l326 423h86v-405h98v-98h-98v-161h-118v161h-294z"/>
<glyph glyph-name="five" horiz-adv-x="529" unicode="5" d="M34 26l33 94q63 -29 132 -29q66 0 107 29t41 85q0 69 -61 92q-38 15 -120 15h-82v347h395l-30 -102h-248v-150h26q74 0 126 -20q60 -24 90.5 -70.5t30.5 -104.5q0 -99 -67.5 -160.5t-203.5 -61.5q-99 0 -169 36z"/>
<glyph glyph-name="six" horiz-adv-x="565" unicode="6" d="M300 87q48 0 74 30t26 84q0 59 -28.5 91t-76.5 32q-30 0 -64 -13t-56 -32q2 -92 37.5 -142t87.5 -50zM298 -10q-109 0 -179.5 79t-70.5 233q0 157 81 260t217 103q81 0 147 -31l-31 -93q-53 27 -110 27q-70 0 -119 -48.5t-61 -145.5q71 48 155 48q86 0 143 -55t57 -149 q0 -104 -64 -166t-165 -62z"/>
<glyph glyph-name="seven" horiz-adv-x="499" unicode="7" d="M77 0q68 332 243 557h-274l-30 102h468v-42q-210 -244 -281 -617h-126z"/>
<glyph glyph-name="eight" horiz-adv-x="574" unicode="8" d="M309 386q69 36 69 98q0 38 -25 63t-69 25q-40 0 -65.5 -23t-25.5 -58q0 -43 31 -66t85 -39zM290 83q47 0 78.5 24t31.5 67q0 27 -12 47.5t-37.5 34.5t-43.5 20.5t-51 16.5q-33 -14 -57 -42t-24 -65q0 -49 33 -76t82 -27zM283 -10q-111 0 -173 50t-62 133q0 58 31.5 101 t83.5 65v2q-96 54 -96 145q0 78 61 128.5t163 50.5q100 0 156.5 -50.5t56.5 -119.5q0 -98 -100 -150v-2q122 -47 122 -159q0 -86 -63.5 -140t-179.5 -54z"/>
<glyph glyph-name="nine" horiz-adv-x="559" unicode="9" d="M267 331q70 0 120 56q-1 80 -34.5 130.5t-89.5 50.5q-46 0 -73.5 -33t-27.5 -87q0 -56 27.5 -86.5t77.5 -30.5zM213 -10q-87 0 -157 33l30 96q62 -32 125 -32q155 0 174 194h-1q-61 -47 -144 -47q-86 0 -144 51.5t-58 152.5q0 102 64 164.5t164 62.5q112 0 178.5 -77.5 t66.5 -233.5q0 -174 -75.5 -269t-222.5 -95z"/>
<glyph glyph-name="colon" horiz-adv-x="263" unicode=":" d="M131 -9q-27 0 -46.5 20t-19.5 49t19.5 48.5t46.5 19.5q28 0 47.5 -19.5t19.5 -48.5t-19.5 -49t-47.5 -20zM131 314q-27 0 -46.5 20t-19.5 48q0 29 19.5 49t46.5 20q28 0 47.5 -20t19.5 -49q0 -28 -19.5 -48t-47.5 -20z"/>
<glyph glyph-name="semicolon" horiz-adv-x="263" unicode=";" d="M34 -122q46 78 46 155q0 31 -6 66l110 19q7 -29 7 -63q0 -113 -88 -210zM123 314q-28 0 -47 19.5t-19 48.5t19 49t47 20t47.5 -20t19.5 -49q0 -28 -19.5 -48t-47.5 -20z"/>
<glyph glyph-name="less" horiz-adv-x="543" unicode="&lt;" d="M46 213v94l428 177v-101l-324 -122v-2l324 -122v-101z"/>
<glyph glyph-name="equal" d="M40 301v99h471v-99h-471zM40 99v99h471v-99h-471z" unicode="="/>
<glyph glyph-name="greater" horiz-adv-x="543" unicode="&gt;" d="M69 36v101l324 122v2l-324 122v101l428 -177v-94z"/>
<glyph glyph-name="question" horiz-adv-x="482" unicode="?" d="M194 -9q-28 0 -47 20t-19 49t19 48.5t47 19.5t47.5 -19.5t19.5 -48.5t-19.5 -49t-47.5 -20zM138 192q-31 37 -31 84q0 33 19 61t46 47.5t53.5 38t45.5 39.5t19 44q0 28 -18.5 43t-50.5 15q-64 0 -127 -56l-54 77q93 80 201 80q87 0 134.5 -41t47.5 -105 q0 -38 -20.5 -70.5t-49.5 -54.5t-58 -41.5t-49.5 -40.5t-20.5 -43t14 -40z"/>
<glyph glyph-name="at" horiz-adv-x="777" unicode="@" d="M458 252l9 71q-26 16 -58 16q-50 0 -84.5 -40.5t-34.5 -106.5q0 -89 62 -89q38 0 67.5 36.5t38.5 112.5zM486 -46l21 -67q-71 -27 -161 -27q-137 0 -225 91t-88 240q0 171 107 275t264 104q150 0 245 -87t95 -233q0 -108 -46.5 -164.5t-123.5 -56.5q-86 0 -103 82h-1 q-15 -31 -53 -56t-87 -25q-54 0 -95 39t-41 120q0 98 61.5 160.5t155.5 62.5q85 0 154 -42l-20 -155q-5 -35 -5 -55q0 -61 43 -61q38 0 60 38.5t22 105.5q0 112 -67 185t-196 73q-124 0 -206.5 -82.5t-82.5 -221.5q0 -127 68 -197.5t173 -70.5q79 0 132 25z"/>
<glyph glyph-name="A" horiz-adv-x="632" unicode="A" d="M230 263h163l-46 131q-21 59 -33 102h-2q-7 -26 -34 -103zM8 0l255 662h96l265 -662h-130l-64 165h-235l-62 -165h-125z"/>
<glyph glyph-name="B" horiz-adv-x="567" unicode="B" d="M200 384h57q49 0 75.5 24t26.5 64q0 39 -26 63.5t-77 24.5h-56v-176zM200 99h77q123 0 123 96q0 42 -29.5 66t-80.5 24h-90v-186zM80 0v659h193q100 0 152.5 -48.5t52.5 -118.5q0 -44 -21 -80.5t-59 -55.5v-2q57 -14 90.5 -57.5t33.5 -101.5q0 -82 -61 -138.5t-170 -56.5 h-211z"/>
<glyph glyph-name="C" horiz-adv-x="627" unicode="C" d="M561 137l33 -95q-95 -52 -209 -52q-158 0 -245.5 91.5t-87.5 240.5q0 146 96 244.5t252 98.5q100 0 173 -32v-112q-81 43 -170 43q-105 0 -164 -68.5t-59 -170.5q0 -105 59.5 -169.5t159.5 -64.5q82 0 162 46z"/>
<glyph glyph-name="D" horiz-adv-x="696" unicode="D" d="M200 102h76q123 0 181.5 64.5t58.5 165.5q0 106 -62 165.5t-180 59.5h-74v-455zM80 0v659h205q172 0 266 -88t94 -237q0 -151 -100 -242.5t-271 -91.5h-194z"/>
<glyph glyph-name="E" horiz-adv-x="502" unicode="E" d="M80 0v659h364l-33 -102h-211v-172h211v-102h-211v-181h245v-102h-365z"/>
<glyph glyph-name="F" horiz-adv-x="480" unicode="F" d="M80 0v659h367l-33 -102h-214v-172h210v-102h-210v-283h-120z"/>
<glyph glyph-name="G" horiz-adv-x="708" unicode="G" d="M636 320v-277q-106 -53 -240 -53q-159 0 -251.5 91.5t-92.5 236.5q0 152 100 249.5t262 97.5q99 0 191 -33v-112q-88 44 -182 44q-116 0 -179.5 -65t-63.5 -173t60 -171.5t165 -63.5q67 0 110 20v209h121z"/>
<glyph glyph-name="H" horiz-adv-x="715" unicode="H" d="M80 0v659h120v-272h315v272h121v-659h-121v285h-315v-285h-120z"/>
<glyph glyph-name="I" horiz-adv-x="280" unicode="I" d="M80 0v659h120v-659h-120z"/>
<glyph glyph-name="J" horiz-adv-x="329" unicode="J" d="M-31 -169l24 97q24 -12 60 -12q46 0 61 25t15 72v646h120v-662q0 -83 -46 -132.5t-140 -49.5q-52 0 -94 16z"/>
<glyph glyph-name="K" horiz-adv-x="599" unicode="K" d="M80 0v659h120v-281h3l226 281h139l-265 -320l280 -339h-147l-233 289h-3v-289h-120z"/>
<glyph glyph-name="L" horiz-adv-x="452" unicode="L" d="M80 0v659h120v-557h234v-102h-354z"/>
<glyph glyph-name="M" horiz-adv-x="821" unicode="M" d="M80 0v659h109l173 -249q41 -60 55 -85h2q26 46 54 89l158 245h110v-659h-121v372q0 61 2 87h-2q-11 -22 -45 -74l-130 -202h-55l-144 207q-37 54 -45 68h-2q1 -26 1 -83v-375h-120z"/>
<glyph glyph-name="N" horiz-adv-x="749" unicode="N" d="M669 0h-109l-286 376q-10 13 -74 100h-2q2 -26 2 -102v-374h-120v659h119l276 -361q54 -73 73 -102h2q-2 70 -2 111v352h121v-659z"/>
<glyph glyph-name="O" horiz-adv-x="768" unicode="O" d="M384 91q92 0 148 63t56 173q0 109 -55 173t-149 64q-93 0 -148.5 -63t-55.5 -174q0 -110 55.5 -173t148.5 -63zM384 -10q-146 0 -239 93t-93 244q0 150 92.5 244t239.5 94q146 0 239 -94.5t93 -243.5q0 -150 -93.5 -243.5t-238.5 -93.5z"/>
<glyph glyph-name="P" horiz-adv-x="545" unicode="P" d="M200 325h36q48 0 77 15q55 27 55 103q0 70 -52 101q-29 17 -82 17h-34v-236zM80 0v659h159q91 0 148 -28q107 -53 107 -188q0 -63 -30.5 -114.5t-95.5 -78.5q-59 -23 -140 -23h-28v-227h-120z"/>
<glyph glyph-name="Q" horiz-adv-x="768" unicode="Q" d="M384 91q92 0 148 63t56 173q0 109 -55 173t-149 64q-93 0 -148.5 -63t-55.5 -174q0 -110 55.5 -173t148.5 -63zM285 3q-106 28 -169.5 114.5t-63.5 209.5q0 150 92.5 244t239.5 94q146 0 239 -94.5t93 -243.5q0 -136 -76 -225t-201 -106q51 -58 134 -58q37 0 66 11 l28 -92q-43 -20 -108 -20q-161 0 -274 166z"/>
<glyph glyph-name="R" horiz-adv-x="589" unicode="R" d="M200 355h54q42 0 73 17q46 26 46 87q0 57 -44 83q-28 19 -74 19h-55v-206zM80 0v659h180q85 0 141 -27q98 -46 98 -161q0 -64 -35 -107.5t-94 -62.5v-2q29 -16 82 -107l110 -192h-138l-95 167q-45 83 -72 90h-57v-257h-120z"/>
<glyph glyph-name="S" horiz-adv-x="533" unicode="S" d="M48 47l47 92q69 -48 149 -48q46 0 78 19t32 59q0 35 -29.5 62t-71 47t-83.5 43.5t-71.5 64.5t-29.5 97q0 76 57.5 129t156.5 53q95 0 161 -33v-110q-81 42 -157 42q-39 0 -64.5 -17t-25.5 -54q0 -33 29.5 -58.5t71.5 -45t83.5 -43.5t71 -66.5t29.5 -100.5 q0 -86 -66 -137.5t-169 -51.5q-118 0 -199 57z"/>
<glyph glyph-name="T" horiz-adv-x="536" unicode="T" d="M206 0v557h-192v102h521l-33 -102h-176v-557h-120z"/>
<glyph glyph-name="U" horiz-adv-x="696" unicode="U" d="M348 -10q-188 0 -248 128q-25 50 -25 128v413h120v-405q0 -53 18 -89q36 -74 135 -74t135 74q18 36 18 90v404h120v-413q0 -79 -25 -129q-61 -127 -248 -127z"/>
<glyph glyph-name="V" horiz-adv-x="649" unicode="V" d="M274 -4l-267 663h131l138 -358q11 -31 29.5 -82t18.5 -52h2q28 83 49 135l137 357h130l-267 -663h-101z"/>
<glyph glyph-name="W" horiz-adv-x="944" unicode="W" d="M240 -4l-233 663h136l121 -379q10 -30 32 -111h2q13 46 34 110l89 265l-41 115h122l127 -373q27 -76 37 -116h3q22 88 30 114l114 375h124l-222 -663h-102l-99 279q-27 76 -36 110h-3q-14 -51 -35 -109l-100 -280h-100z"/>
<glyph glyph-name="X" horiz-adv-x="633" unicode="X" d="M11 0l236 331l-217 328h136l156 -237l167 237h132l-231 -325l221 -334h-134l-162 243l-172 -243h-132z"/>
<glyph glyph-name="Y" horiz-adv-x="586" unicode="Y" d="M232 0v261l-225 398h132l154 -291h2l153 291h130l-225 -399v-260h-121z"/>
<glyph glyph-name="Z" horiz-adv-x="570" unicode="Z" d="M26 0l327 557h-281l-31 102h503l-321 -557h324v-102h-521z"/>
<glyph glyph-name="bracketleft" horiz-adv-x="304" unicode="[" d="M68 -235v1008h213v-91h-101v-826h101v-91h-213z"/>
<glyph glyph-name="backslash" horiz-adv-x="401" unicode="\" d="M267 -35l-253 731h120l252 -731h-119z"/>
<glyph glyph-name="bracketright" horiz-adv-x="304" unicode="]" d="M23 -235v91h101v826h-101v91h214v-1008h-214z"/>
<glyph glyph-name="asciicircum" horiz-adv-x="521" unicode="^" d="M58 287l153 372h98l153 -372h-100l-101 268h-2l-100 -268h-101z"/>
<glyph glyph-name="underscore" horiz-adv-x="442" unicode="_" d="M0 -130v64h442v-64h-442z"/>
<glyph glyph-name="grave" horiz-adv-x="384" unicode="`" d="M161 531l-97 147h130l58 -147h-91z"/>
<glyph glyph-name="a" horiz-adv-x="492" unicode="a" d="M316 220l-64 -2q-45 -1 -69 -15q-29 -16 -29 -54q0 -31 19 -48t51 -17q49 0 92 35v101zM344 0l-18 45q-60 -55 -136 -55q-68 0 -112.5 42t-44.5 109q0 88 80 129q46 24 122 27l81 3v15q0 79 -91 79q-62 0 -124 -33l-39 77q85 47 183 47q190 0 190 -172v-192q0 -89 9 -121 h-100z"/>
<glyph glyph-name="b" horiz-adv-x="533" unicode="b" d="M235 89q64 0 102.5 43t38.5 113q0 63 -33 102t-91 39q-34 0 -72 -15v-274q25 -8 55 -8zM216 -10q-92 0 -155 33v685h119v-237q47 14 92 14q98 0 162.5 -62t64.5 -171q0 -122 -79.5 -192t-203.5 -70z"/>
<glyph glyph-name="c" horiz-adv-x="448" unicode="c" d="M274 -10q-112 0 -175.5 68.5t-63.5 174.5q0 109 71.5 180.5t178.5 71.5q77 0 127 -32v-101q-51 37 -115 37q-65 0 -102.5 -43t-37.5 -110q0 -72 36 -111t98 -39q51 0 110 32l35 -82q-67 -46 -162 -46z"/>
<glyph glyph-name="d" horiz-adv-x="538" unicode="d" d="M302 89q35 0 56 8v283q-32 7 -57 7q-64 0 -104 -41t-40 -112q0 -68 39.5 -106.5t105.5 -38.5zM304 -10q-119 0 -194 64t-75 178q0 112 73 182.5t186 70.5q36 0 64 -6v229h120v-683q-72 -35 -174 -35z"/>
<glyph glyph-name="e" horiz-adv-x="493" unicode="e" d="M155 287h183q-1 45 -24 76t-67 31q-42 0 -66.5 -31t-25.5 -76zM459 204h-303q2 -55 38.5 -87.5t95.5 -32.5q62 0 119 32l36 -82q-71 -44 -167 -44q-121 0 -181.5 70.5t-60.5 175.5q0 109 57 179t156 70t154.5 -67.5t55.5 -185.5v-28z"/>
<glyph glyph-name="f" horiz-adv-x="346" unicode="f" d="M94 0v380h-70v93h70v66q0 81 43.5 125t117.5 44q54 0 99 -21l-24 -95q-37 13 -58 13q-58 0 -58 -65v-67h123l-29 -93h-94v-380h-120z"/>
<glyph glyph-name="g" horiz-adv-x="504" unicode="g" d="M242 219q37 0 60.5 23t23.5 64q0 37 -23.5 63t-61.5 26q-36 0 -59 -23t-23 -65q0 -37 22.5 -62.5t60.5 -25.5zM250 -153q54 0 87 16.5t33 42.5q0 30 -36.5 43.5t-95 20.5t-79.5 15q-38 -28 -38 -62q0 -35 35 -55.5t94 -20.5zM234 -237q-103 0 -161.5 38t-58.5 101 q0 38 23.5 68t61.5 46q-31 19 -31 59q0 50 57 89q-37 22 -58 61t-21 86q0 71 51 122.5t142 51.5q58 0 94 -21q6 -2 12 2q41 41 114 41q18 0 32 -2l-24 -86q-18 5 -35 5q-22 0 -35 -8q42 -45 42 -112q0 -79 -54.5 -127t-141.5 -48q-32 0 -58 8q-12 -20 -12 -35q0 -20 23 -31 t57.5 -14.5t75 -11.5t75 -19t57.5 -38t23 -69q0 -68 -66 -112t-184 -44z"/>
<glyph glyph-name="h" horiz-adv-x="543" unicode="h" d="M61 0v708h119v-287q76 64 157 64q65 0 108 -39.5t43 -132.5v-313h-119v276q0 50 -15.5 77.5t-57.5 27.5q-56 0 -116 -50v-331h-119z"/>
<glyph glyph-name="i" horiz-adv-x="238" unicode="i" d="M119 550q-31 0 -52 20.5t-21 50.5t21 51t52 21q32 0 53 -20.5t21 -51.5q0 -29 -21.5 -50t-52.5 -21zM59 0v473h120v-473h-120z"/>
<glyph glyph-name="j" horiz-adv-x="252" unicode="j" d="M133 550q-31 0 -52 20.5t-21 50.5t21 51t52 21q32 0 53 -20.5t21 -51.5q0 -29 -21.5 -50t-52.5 -21zM-61 -220l22 98q23 -11 51 -11q33 0 47 19t14 62v525h120v-543q0 -79 -43.5 -123t-119.5 -44q-52 0 -91 17z"/>
<glyph glyph-name="k" horiz-adv-x="493" unicode="k" d="M61 0v708h119v-399h2l155 164h136l-194 -206l210 -267h-139l-168 219h-2v-219h-119z"/>
<glyph glyph-name="l" horiz-adv-x="285" unicode="l" d="M61 107v601h119v-569q0 -43 35 -43q15 0 30 6l23 -92q-40 -17 -88 -17q-119 0 -119 114z"/>
<glyph glyph-name="m" horiz-adv-x="833" unicode="m" d="M55 0v473h100l12 -53q83 65 159 65q90 0 126 -73q87 73 170 73q69 0 113 -41.5t44 -129.5v-314h-119v281q0 48 -15 74t-57 26q-55 0 -112 -47q1 -5 1 -18v-316h-120v280q0 49 -14 75t-56 26q-54 0 -113 -47v-334h-119z"/>
<glyph glyph-name="n" horiz-adv-x="537" unicode="n" d="M55 0v473h102l12 -53q83 65 162 65q65 0 108.5 -39.5t43.5 -132.5v-313h-120v276q0 50 -15.5 77.5t-57.5 27.5q-56 0 -116 -50v-331h-119z"/>
<glyph glyph-name="o" horiz-adv-x="542" unicode="o" d="M271 86q55 0 84.5 42t29.5 110t-29.5 109.5t-84.5 41.5t-84.5 -41.5t-29.5 -109.5t29.5 -110t84.5 -42zM271 -10q-105 0 -170.5 70t-65.5 178q0 107 65.5 177t170.5 70t171 -70t66 -177t-66 -177.5t-171 -70.5z"/>
<glyph glyph-name="p" horiz-adv-x="528" unicode="p" d="M174 101q31 -12 64 -12q65 0 99 39.5t34 109.5q0 74 -37.5 111.5t-103.5 37.5q-27 0 -56 -8v-278zM55 -237v692q87 30 179 30q125 0 192 -66t67 -181q0 -110 -68 -179t-178 -69q-37 0 -73 11v-238h-119z"/>
<glyph glyph-name="q" horiz-adv-x="534" unicode="q" d="M277 89q45 0 83 26v263q-32 9 -60 9q-68 0 -105.5 -43t-37.5 -114q0 -64 32.5 -102.5t87.5 -38.5zM247 -10q-87 0 -149.5 61t-62.5 174q0 121 76.5 190.5t195.5 69.5q101 0 172 -30v-692h-119v256q-48 -29 -113 -29z"/>
<glyph glyph-name="r" horiz-adv-x="364" unicode="r" d="M55 0v473h101l13 -53q65 65 130 65q39 0 67 -19l-42 -101q-26 16 -54 16q-42 0 -96 -47v-334h-119z"/>
<glyph glyph-name="s" horiz-adv-x="420" unicode="s" d="M21 36l37 87q61 -39 129 -39q83 0 83 50q0 22 -23 37t-55.5 26t-65 26t-55.5 45t-23 74q0 64 48.5 103.5t130.5 39.5q75 0 139 -23v-101q-71 30 -134 30q-67 0 -67 -43q0 -20 23 -34t55.5 -25.5t65 -27t55.5 -47t23 -77.5q0 -74 -54.5 -110.5t-137.5 -36.5q-99 0 -174 46 z"/>
<glyph glyph-name="t" horiz-adv-x="386" unicode="t" d="M236 -10q-63 0 -99 34t-36 93v263h-85v93h85v110l119 35v-145h143l-29 -93h-114v-234q0 -32 11 -46t35 -14q38 0 72 23l36 -82q-55 -37 -138 -37z"/>
<glyph glyph-name="u" horiz-adv-x="535" unicode="u" d="M213 -10q-42 0 -82 21.5t-60 71.5q-16 38 -16 99v291h119v-279q0 -38 10 -59q18 -43 71 -43q59 0 97 42v339h120v-356q0 -88 8 -117h-102l-18 49q-66 -59 -147 -59z"/>
<glyph glyph-name="v" horiz-adv-x="486" unicode="v" d="M198 -3l-193 476h121l117 -322h2l115 322h120l-192 -476h-90z"/>
<glyph glyph-name="w" horiz-adv-x="748" unicode="w" d="M178 -3l-171 476h121l100 -321h2l100 321h93l104 -321h2l98 321h118l-175 -476h-88l-104 321h-2l-106 -321h-92z"/>
<glyph glyph-name="x" horiz-adv-x="494" unicode="x" d="M7 0l177 238l-171 235h125l111 -154l112 154h124l-173 -235l175 -238h-125l-114 158l-116 -158h-125z"/>
<glyph glyph-name="y" horiz-adv-x="518" unicode="y" d="M513 473l-181 -488q-27 -71 -55.5 -117.5t-60 -68t-58.5 -29t-64 -7.5q-56 0 -106 22l30 94q35 -19 71 -19q42 0 73.5 32.5t58.5 110.5l-213 470h127l140 -334h2l113 334h123z"/>
<glyph glyph-name="z" horiz-adv-x="415" unicode="z" d="M15 0l219 380h-181l-24 93h379l-217 -380h213v-93h-389z"/>
<glyph glyph-name="braceleft" horiz-adv-x="362" unicode="{" d="M300 -227q-99 5 -139.5 50.5t-40.5 122.5v218q0 39 -17 53.5t-48 15.5v80q31 1 48 15.5t17 53.5v218q0 77 40.5 122.5t139.5 50.5l21 -105q-46 -5 -66.5 -26t-20.5 -64v-181q0 -113 -77 -123v-2q77 -10 77 -123v-181q0 -43 20.5 -64t66.5 -26z"/>
<glyph glyph-name="bar" horiz-adv-x="282" unicode="|" d="M83 -236v1016h117v-1016h-117z"/>
<glyph glyph-name="braceright" horiz-adv-x="362" unicode="}" d="M42 -122q46 5 66.5 26t20.5 64v181q0 113 77 123v2q-77 10 -77 123v181q0 43 -20.5 64t-66.5 26l21 105q99 -5 139.5 -50.5t40.5 -122.5v-218q0 -39 17 -53.5t48 -15.5v-80q-31 -1 -48 -15.5t-17 -53.5v-218q0 -77 -40.5 -122.5t-139.5 -50.5z"/>
<glyph glyph-name="asciitilde" d="M81 198l-57 76q71 71 152 71q40 0 105 -28.5t97 -28.5q45 0 91 42l58 -76q-71 -71 -153 -71q-40 0 -105 28.5t-97 28.5q-25 0 -45 -9.5t-46 -32.5z" unicode="~"/>
<glyph glyph-name="exclamdown" horiz-adv-x="269" unicode="¡" d="M75 -183v49q0 187 4 259.5t20 156.5h70q16 -83 20.5 -156t4.5 -261v-48h-119zM134 347q-28 0 -47 20t-19 49t19 49t47 20t47.5 -20t19.5 -49t-19.5 -49t-47.5 -20z"/>
<glyph glyph-name="cent" horiz-adv-x="545" unicode="¢" d="M243 0v106q-80 18 -123.5 78.5t-43.5 142.5q0 81 47 144t123 81v107h86v-97q64 -1 107 -29v-94q-48 33 -115 33q-57 0 -94.5 -38t-37.5 -102q0 -63 35 -100.5t94 -37.5q57 0 110 28l30 -86q-59 -31 -132 -34v-102h-86z"/>
<glyph glyph-name="sterling" horiz-adv-x="545" unicode="£" d="M60 0v76q91 28 91 211h-71v98h71v60q0 52 14.5 92.5t37 64t52.5 38.5t56.5 20t54.5 5q67 0 134 -26l-26 -96q-40 21 -91 21q-52 0 -83 -33t-31 -100v-46h188l-31 -98h-157q-2 -149 -59 -198v-2q64 11 123 11h163v-98h-436z"/>
<glyph glyph-name="currency" horiz-adv-x="545" unicode="¤" d="M272 183q58 0 98.5 42t40.5 102q0 59 -40.5 101t-98.5 42t-98.5 -42t-40.5 -101q0 -60 40.5 -102t98.5 -42zM458 68l-66 67q-55 -34 -120 -34t-119 34l-68 -69l-71 72l69 67q-37 56 -37 122q0 65 35 119l-68 67l71 72l67 -69q56 37 121 37q66 0 122 -37l65 67l71 -71 l-67 -66q35 -54 35 -119q0 -67 -36 -122l68 -66z"/>
<glyph glyph-name="yen" horiz-adv-x="545" unicode="¥" d="M213 0v112h-156v75h156v74h-156v75h120l-153 323h128l120 -290h1l119 290h129l-154 -323h121v-75h-156v-74h156v-75h-156v-112h-119z"/>
<glyph glyph-name="brokenbar" horiz-adv-x="282" unicode="¦" d="M83 416v364h117v-364h-117zM83 -236v364h117v-364h-117z"/>
<glyph glyph-name="section" horiz-adv-x="558" unicode="§" d="M362 169q42 29 42 75q0 21 -10.5 39t-33.5 33.5t-42.5 25.5t-54.5 26t-53 25q-38 -28 -38 -74q0 -22 10.5 -40.5t33.5 -34t42.5 -25.5t53 -25.5t50.5 -24.5zM64 -109l46 85q72 -44 144 -44q107 0 107 72q0 33 -30 57t-72.5 41t-85.5 38t-73 58.5t-30 90.5q0 92 78 143 q-54 49 -54 121q0 77 53 124t140 47q100 0 170 -36l-2 -103q-79 42 -156 42q-38 0 -63 -17t-25 -48q0 -34 30.5 -58t74.5 -42t87.5 -39t74 -60t30.5 -95q0 -45 -22.5 -82.5t-60.5 -59.5q54 -47 54 -113q0 -89 -62.5 -133t-161.5 -44q-117 0 -191 55z"/>
<glyph glyph-name="dieresis" horiz-adv-x="384" unicode="¨" d="M287 544q-25 0 -43 18t-18 43q0 26 17.5 44t43.5 18q25 0 43 -18t18 -44q0 -25 -18 -43t-43 -18zM96 544q-25 0 -43 18t-18 43q0 26 18 44t43 18q26 0 44 -18t18 -44q0 -25 -18 -43t-44 -18z"/>
<glyph glyph-name="copyright" horiz-adv-x="770" unicode="©" d="M486 213l24 -56q-58 -32 -118 -32q-84 0 -135 55.5t-51 142.5q0 86 53.5 145t139.5 59q59 0 99 -22v-68q-46 26 -97 26q-55 0 -88.5 -38t-33.5 -99q0 -63 32 -100.5t86 -37.5q48 0 89 25zM385 51q114 0 188 77.5t74 198.5t-74 198.5t-188 77.5t-188.5 -77.5t-74.5 -198.5 t74.5 -198.5t188.5 -77.5zM385 -10q-146 0 -239 96t-93 241t93 241t239 96q145 0 238 -96t93 -241t-93 -241t-238 -96z"/>
<glyph glyph-name="ordfeminine" horiz-adv-x="368" unicode="ª" d="M228 359v60l-41 -1q-63 -2 -63 -41q0 -18 12.5 -29t34.5 -11q30 0 57 22zM250 270l-12 29q-41 -36 -94 -36q-49 0 -81 29.5t-32 79.5q0 52 38.5 80t108.5 30l50 2v8q0 22 -16.5 33.5t-42.5 11.5q-47 0 -89 -22l-32 60q57 36 134 36q137 0 137 -125v-131q0 -58 8 -85h-77z M28 132v71h312v-71h-312z"/>
<glyph glyph-name="guillemotleft" horiz-adv-x="605" unicode="«" d="M540 402l-124 -161l124 -161l-86 -48l-170 209l170 209zM293 402l-124 -161l124 -161l-86 -48l-170 209l170 209z"/>
<glyph glyph-name="logicalnot" d="M399 45v200h-359v99h471v-299h-112z" unicode="¬"/>
<glyph glyph-name="registered" horiz-adv-x="574" unicode="®" d="M252 441h14q53 0 53 40q0 27 -21 33q-11 4 -31 4h-15v-77zM202 296v261h78q25 0 43 -5q49 -16 49 -66q0 -28 -17.5 -46t-44.5 -24v-2q17 -8 78 -118h-57q-3 6 -10 18q-47 85 -58 88h-11v-106h-50zM285 227q81 0 133.5 56.5t52.5 139.5t-52.5 139t-133.5 56t-133 -56 t-52 -139t52 -139.5t133 -56.5zM285 180q-104 0 -171 69.5t-67 173.5t67 173t171 69q103 0 172 -69.5t69 -172.5t-69.5 -173t-171.5 -70z"/>
<glyph glyph-name="macron" horiz-adv-x="384" unicode="¯" d="M49 569v90h285v-90h-285z"/>
<glyph glyph-name="degree" horiz-adv-x="370" unicode="°" d="M185 427q32 0 53 22t21 56t-21 56.5t-53 22.5t-53 -22.5t-21 -56.5t21 -56t53 -22zM184 353q-68 0 -111.5 43.5t-43.5 109.5t44.5 109.5t111.5 43.5t111.5 -43.5t44.5 -109.5t-44.5 -109.5t-112.5 -43.5z"/>
<glyph glyph-name="plusminus" d="M40 0v99h471v-99h-471zM219 148v137h-179v99h179v137h111v-137h181v-99h-181v-137h-111z" unicode="±"/>
<glyph glyph-name="twosuperior" horiz-adv-x="349" unicode="²" d="M22 402q2 51 21.5 92t46.5 66t54 45t45.5 38.5t18.5 35.5q0 38 -49 38q-36 0 -101 -29l-24 73q78 37 147 37q63 0 96 -29t33 -78q0 -30 -15 -55t-37.5 -43t-45.5 -34t-42.5 -35.5t-25.5 -40.5h169v-81h-291z"/>
<glyph glyph-name="threesuperior" horiz-adv-x="348" unicode="³" d="M15 422l25 71q43 -20 91 -20q70 0 70 48q0 28 -29 38q-16 6 -51 6h-49v69h38q30 0 49 7q29 12 29 40q0 39 -50 39q-37 0 -90 -22l-23 71q73 29 136 29q61 0 95 -28t34 -72q0 -64 -66 -91v-2q38 -7 59 -30.5t21 -60.5q0 -52 -43.5 -85t-124.5 -33q-67 0 -121 26z"/>
<glyph glyph-name="acute" horiz-adv-x="384" unicode="´" d="M131 531l58 147h129l-96 -147h-91z"/>
<glyph glyph-name="mu" horiz-adv-x="578" unicode="µ" d="M358 212v261h119v-309q0 -38 10 -51.5t32 -13.5q15 0 28 6l23 -95q-36 -17 -78 -17q-43 0 -70.5 23.5t-34.5 65.5h-2q-40 -92 -126 -92q-53 0 -81 34h-2q4 -56 4 -129v-132h-119v710h119v-286q0 -44 22 -69.5t61 -25.5q38 0 66.5 30.5t28.5 89.5z"/>
<glyph glyph-name="paragraph" horiz-adv-x="632" unicode="¶" d="M266 -160v364q-96 8 -154.5 70t-58.5 157q0 98 65 163t171 65h262v-819h-96v742h-93v-742h-96z"/>
<glyph glyph-name="periodcentered" horiz-adv-x="263" unicode="·" d="M131 182q-27 0 -46.5 20t-19.5 49t19.5 48.5t46.5 19.5q28 0 47.5 -19.5t19.5 -48.5t-19.5 -49t-47.5 -20z"/>
<glyph glyph-name="cedilla" horiz-adv-x="384" unicode="¸" d="M84 -201l17 55q24 -8 48 -8q48 0 48 32q0 20 -20 27t-61 7l27 88h88l-15 -49q84 -7 84 -74q0 -40 -36 -64.5t-105 -24.5q-40 0 -75 11z"/>
<glyph glyph-name="onesuperior" horiz-adv-x="349" unicode="¹" d="M176 402v297l-116 -43l-31 75l165 65h75v-394h-93z"/>
<glyph glyph-name="ordmasculine" horiz-adv-x="392" unicode="º" d="M196 339q35 0 55.5 27.5t20.5 70.5t-20.5 70.5t-55.5 27.5t-55.5 -27.5t-20.5 -70.5t20.5 -70.5t55.5 -27.5zM196 263q-75 0 -122 49t-47 125t47 125t122 49t122 -49t47 -125t-47 -125t-122 -49zM31 132v71h330v-71h-330z"/>
<glyph glyph-name="guillemotright" horiz-adv-x="605" unicode="»" d="M312 80l124 161l-124 161l86 48l170 -209l-170 -209zM65 80l124 161l-124 161l86 48l170 -209l-170 -209z"/>
<glyph glyph-name="onequarter" horiz-adv-x="943" unicode="¼" d="M620 153q17 1 66 1h24v27q0 47 3 96zM521 84v57l193 253h89v-240h53v-70h-53v-84h-93v84h-189zM206 270v297l-116 -43l-31 75l165 65h75v-394h-93zM205 0l415 659h98l-416 -659h-97z"/>
<glyph glyph-name="onehalf" horiz-adv-x="943" unicode="½" d="M575 0q2 51 21.5 92t46.5 66t54 45t45.5 38.5t18.5 35.5q0 38 -49 38q-36 0 -101 -29l-24 73q78 37 147 37q63 0 96 -29t33 -78q0 -30 -15 -55t-37.5 -43t-45.5 -34t-42.5 -35.5t-25.5 -40.5h169v-81h-291zM191 270v297l-116 -43l-31 75l165 65h75v-394h-93zM187 0 l415 659h98l-416 -659h-97z"/>
<glyph glyph-name="threequarters" horiz-adv-x="943" unicode="¾" d="M65 289l25 71q43 -20 91 -20q70 0 70 48q0 28 -29 38q-16 6 -51 6h-49v69h38q30 0 49 7q29 12 29 40q0 39 -50 39q-37 0 -90 -22l-23 71q73 29 136 29q61 0 95 -28t34 -72q0 -64 -66 -91v-2q38 -7 59 -30.5t21 -60.5q0 -52 -43.5 -85t-124.5 -33q-67 0 -121 26zM635 153 q17 1 66 1h24v27q0 47 3 96zM536 84v57l193 253h89v-240h53v-70h-53v-84h-93v84h-189zM233 0l415 659h98l-416 -659h-97z"/>
<glyph glyph-name="questiondown" horiz-adv-x="473" unicode="¿" d="M369 -32l54 -77q-93 -80 -201 -80q-87 0 -134.5 41t-47.5 105q0 47 31 86t67.5 61t67.5 49.5t31 53.5q0 21 -13 40l101 37q31 -37 31 -84q0 -40 -29 -74t-63 -54t-63 -47t-29 -55t18.5 -43t50.5 -15q63 0 128 56zM268 347q-27 0 -46.5 20t-19.5 49t19.5 49t46.5 20 q28 0 47.5 -20t19.5 -49t-19.5 -49t-47.5 -20z"/>
<glyph glyph-name="Agrave" horiz-adv-x="632" unicode="À" d="M281 696l-97 147h130l58 -147h-91zM230 263h163l-46 131q-21 59 -33 102h-2q-7 -26 -34 -103zM8 0l255 662h96l265 -662h-130l-64 165h-235l-62 -165h-125z"/>
<glyph glyph-name="Aacute" horiz-adv-x="632" unicode="Á" d="M251 696l58 147h129l-96 -147h-91zM230 263h163l-46 131q-21 59 -33 102h-2q-7 -26 -34 -103zM8 0l255 662h96l265 -662h-130l-64 165h-235l-62 -165h-125z"/>
<glyph glyph-name="Acircumflex" horiz-adv-x="632" unicode="Â" d="M163 696l100 147h96l101 -147h-94l-55 79l-54 -79h-94zM230 263h163l-46 131q-21 59 -33 102h-2q-7 -26 -34 -103zM8 0l255 662h96l265 -662h-130l-64 165h-235l-62 -165h-125z"/>
<glyph glyph-name="Atilde" horiz-adv-x="632" unicode="Ã" d="M155 720v39q0 39 23 61t59 22q32 0 75.5 -22t55.5 -22q14 0 18 8.5t4 29.5h78v-40q0 -39 -23 -60.5t-59 -21.5q-31 0 -75 21.5t-56 21.5q-14 0 -18 -8.5t-4 -28.5h-78zM230 263h163l-46 131q-21 59 -33 102h-2q-7 -26 -34 -103zM8 0l255 662h96l265 -662h-130l-64 165 h-235l-62 -165h-125z"/>
<glyph glyph-name="Adieresis" horiz-adv-x="632" unicode="Ä" d="M407 701q-25 0 -43 17.5t-18 43.5t18 44t43 18t43 -18.5t18 -43.5t-18 -43t-43 -18zM216 701q-25 0 -43 18t-18 43t18 43.5t43 18.5q26 0 44 -18t18 -44q0 -25 -18 -43t-44 -18zM230 263h163l-46 131q-21 59 -33 102h-2q-7 -26 -34 -103zM8 0l255 662h96l265 -662h-130 l-64 165h-235l-62 -165h-125z"/>
<glyph glyph-name="Aring" horiz-adv-x="632" unicode="Å" d="M310 698q19 0 30 12t11 34q0 45 -41 45q-18 0 -29.5 -12t-11.5 -33t11.5 -33.5t29.5 -12.5zM230 263h163l-46 132q-24 66 -33 103h-2q-8 -31 -34 -104zM8 0l252 653q-31 10 -49 34t-18 57q0 44 32.5 70.5t84.5 26.5t84.5 -26.5t32.5 -70.5q0 -67 -65 -89l262 -655h-130 l-64 165h-235l-62 -165h-125z"/>
<glyph glyph-name="AE" horiz-adv-x="840" unicode="Æ" d="M277 263h148l-23 154q-7 44 -11 77h-1q-5 -12 -39 -83zM7 0l356 659h418l-33 -102h-253l30 -172h224v-102h-207l31 -181h209v-102h-313l-28 165h-218l-89 -165h-127z"/>
<glyph glyph-name="Ccedilla" horiz-adv-x="627" unicode="Ç" d="M246 -201l17 55q24 -8 47 -8q49 0 49 32q0 20 -20 27t-61 7l26 86q-121 21 -186.5 108.5t-65.5 215.5q0 146 96 244.5t252 98.5q100 0 173 -32v-112q-81 43 -170 43q-105 0 -164 -68.5t-59 -170.5q0 -105 59.5 -169.5t159.5 -64.5q82 0 162 46l33 -95q-94 -52 -204 -52 l-13 -39q84 -7 84 -74q0 -40 -35.5 -64.5t-104.5 -24.5q-42 0 -75 11z"/>
<glyph glyph-name="Egrave" horiz-adv-x="502" unicode="È" d="M216 696l-97 147h130l58 -147h-91zM80 0v659h364l-33 -102h-211v-172h211v-102h-211v-181h245v-102h-365z"/>
<glyph glyph-name="Eacute" horiz-adv-x="502" unicode="É" d="M196 696l58 147h129l-96 -147h-91zM80 0v659h364l-33 -102h-211v-172h211v-102h-211v-181h245v-102h-365z"/>
<glyph glyph-name="Ecircumflex" horiz-adv-x="502" unicode="Ê" d="M107 696l100 147h96l101 -147h-94l-55 79l-54 -79h-94zM80 0v659h364l-33 -102h-211v-172h211v-102h-211v-181h245v-102h-365z"/>
<glyph glyph-name="Edieresis" horiz-adv-x="502" unicode="Ë" d="M354 701q-26 0 -43.5 17.5t-17.5 43.5t18 44t43 18t43 -18.5t18 -43.5t-18 -43t-43 -18zM163 701q-25 0 -43 18t-18 43t18 43.5t43 18.5t43.5 -18t18.5 -44q0 -25 -18 -43t-44 -18zM80 0v659h364l-33 -102h-211v-172h211v-102h-211v-181h245v-102h-365z"/>
<glyph glyph-name="Igrave" horiz-adv-x="280" unicode="Ì" d="M109 696l-97 147h130l58 -147h-91zM80 0v659h120v-659h-120z"/>
<glyph glyph-name="Iacute" horiz-adv-x="280" unicode="Í" d="M76 696l58 147h129l-96 -147h-91zM80 0v659h120v-659h-120z"/>
<glyph glyph-name="Icircumflex" horiz-adv-x="280" unicode="Î" d="M-9 696l100 147h96l101 -147h-94l-55 79l-54 -79h-94zM80 0v659h120v-659h-120z"/>
<glyph glyph-name="Idieresis" horiz-adv-x="280" unicode="Ï" d="M235 701q-25 0 -43 17.5t-18 43.5t18 44t43 18t43 -18.5t18 -43.5t-18 -43t-43 -18zM44 701q-25 0 -43 18t-18 43t18 43.5t43 18.5q26 0 44 -18t18 -44q0 -25 -18 -43t-44 -18zM80 0v659h120v-659h-120z"/>
<glyph glyph-name="Eth" horiz-adv-x="696" unicode="Ð" d="M200 102h76q123 0 181.5 64.5t58.5 165.5q0 106 -62 165.5t-180 59.5h-74v-174h151v-98h-151v-183zM80 0v285h-72v98h72v276h205q172 0 266 -88t94 -237q0 -151 -100 -242.5t-271 -91.5h-194z"/>
<glyph glyph-name="Ntilde" horiz-adv-x="749" unicode="Ñ" d="M218 720v39q0 39 23 61t59 22q32 0 75.5 -22t55.5 -22q14 0 18 8.5t4 29.5h78v-40q0 -39 -23 -60.5t-59 -21.5q-31 0 -75 21.5t-56 21.5q-14 0 -18 -8.5t-4 -28.5h-78zM669 0h-109l-286 376q-10 13 -74 100h-2q2 -26 2 -102v-374h-120v659h119l276 -361q54 -73 73 -102h2 q-2 70 -2 111v352h121v-659z"/>
<glyph glyph-name="Ograve" horiz-adv-x="768" unicode="Ò" d="M345 696l-97 147h130l58 -147h-91zM384 91q92 0 148 63t56 173q0 109 -55 173t-149 64q-93 0 -148.5 -63t-55.5 -174q0 -110 55.5 -173t148.5 -63zM384 -10q-146 0 -239 93t-93 244q0 150 92.5 244t239.5 94q146 0 239 -94.5t93 -243.5q0 -150 -93.5 -243.5t-238.5 -93.5 z"/>
<glyph glyph-name="Oacute" horiz-adv-x="768" unicode="Ó" d="M336 696l58 147h129l-96 -147h-91zM384 91q92 0 148 63t56 173q0 109 -55 173t-149 64q-93 0 -148.5 -63t-55.5 -174q0 -110 55.5 -173t148.5 -63zM384 -10q-146 0 -239 93t-93 244q0 150 92.5 244t239.5 94q146 0 239 -94.5t93 -243.5q0 -150 -93.5 -243.5t-238.5 -93.5 z"/>
<glyph glyph-name="Ocircumflex" horiz-adv-x="768" unicode="Ô" d="M236 696l100 147h96l101 -147h-94l-55 79l-54 -79h-94zM384 91q92 0 148 63t56 173q0 109 -55 173t-149 64q-93 0 -148.5 -63t-55.5 -174q0 -110 55.5 -173t148.5 -63zM384 -10q-146 0 -239 93t-93 244q0 150 92.5 244t239.5 94q146 0 239 -94.5t93 -243.5 q0 -150 -93.5 -243.5t-238.5 -93.5z"/>
<glyph glyph-name="Otilde" horiz-adv-x="768" unicode="Õ" d="M229 720v39q0 39 23 61t59 22q32 0 75.5 -22t55.5 -22q14 0 18 8.5t4 29.5h78v-40q0 -39 -23 -60.5t-59 -21.5q-31 0 -75 21.5t-56 21.5q-14 0 -18 -8.5t-4 -28.5h-78zM384 91q92 0 148 63t56 173q0 109 -55 173t-149 64q-93 0 -148.5 -63t-55.5 -174q0 -110 55.5 -173 t148.5 -63zM384 -10q-146 0 -239 93t-93 244q0 150 92.5 244t239.5 94q146 0 239 -94.5t93 -243.5q0 -150 -93.5 -243.5t-238.5 -93.5z"/>
<glyph glyph-name="Odieresis" horiz-adv-x="768" unicode="Ö" d="M482 701q-26 0 -43.5 17.5t-17.5 43.5t18 44t43 18t43 -18.5t18 -43.5t-18 -43t-43 -18zM291 701q-25 0 -43 18t-18 43t18 43.5t43 18.5t43.5 -18t18.5 -44q0 -25 -18 -43t-44 -18zM384 91q92 0 148 63t56 173q0 109 -55 173t-149 64q-93 0 -148.5 -63t-55.5 -174 q0 -110 55.5 -173t148.5 -63zM384 -10q-146 0 -239 93t-93 244q0 150 92.5 244t239.5 94q146 0 239 -94.5t93 -243.5q0 -150 -93.5 -243.5t-238.5 -93.5z"/>
<glyph glyph-name="multiply" horiz-adv-x="595" unicode="×" d="M117 -5l-71 71l181 182l-182 182l71 71l182 -182l181 181l71 -71l-180 -181l180 -180l-71 -72l-181 181z"/>
<glyph glyph-name="Oslash" horiz-adv-x="775" unicode="Ø" d="M212 192l282 342q-46 31 -107 31q-92 0 -149 -63.5t-57 -174.5q0 -79 31 -135zM559 468l-283 -345q46 -33 111 -33q93 0 150 63.5t57 173.5q0 83 -35 141zM152 -33l-75 56l59 72q-81 94 -81 232q0 150 93 244t239 94q97 0 172 -47l59 73l74 -56l-59 -73q87 -93 87 -235 q0 -150 -93.5 -243.5t-239.5 -93.5q-101 0 -178 48z"/>
<glyph glyph-name="Ugrave" horiz-adv-x="696" unicode="Ù" d="M312 696l-97 147h130l58 -147h-91zM348 -10q-188 0 -248 128q-25 50 -25 128v413h120v-405q0 -53 18 -89q36 -74 135 -74t135 74q18 36 18 90v404h120v-413q0 -79 -25 -129q-61 -127 -248 -127z"/>
<glyph glyph-name="Uacute" horiz-adv-x="696" unicode="Ú" d="M296 696l58 147h129l-96 -147h-91zM348 -10q-188 0 -248 128q-25 50 -25 128v413h120v-405q0 -53 18 -89q36 -74 135 -74t135 74q18 36 18 90v404h120v-413q0 -79 -25 -129q-61 -127 -248 -127z"/>
<glyph glyph-name="Ucircumflex" horiz-adv-x="696" unicode="Û" d="M202 696l100 147h96l101 -147h-94l-55 79l-54 -79h-94zM348 -10q-188 0 -248 128q-25 50 -25 128v413h120v-405q0 -53 18 -89q36 -74 135 -74t135 74q18 36 18 90v404h120v-413q0 -79 -25 -129q-61 -127 -248 -127z"/>
<glyph glyph-name="Udieresis" horiz-adv-x="696" unicode="Ü" d="M447 701q-25 0 -43 17.5t-18 43.5t18 44t43 18t43 -18.5t18 -43.5t-18 -43t-43 -18zM256 701q-25 0 -43 18t-18 43t18 43.5t43 18.5q26 0 44 -18t18 -44q0 -25 -18 -43t-44 -18zM348 -10q-188 0 -248 128q-25 50 -25 128v413h120v-405q0 -53 18 -89q36 -74 135 -74 t135 74q18 36 18 90v404h120v-413q0 -79 -25 -129q-61 -127 -248 -127z"/>
<glyph glyph-name="Yacute" horiz-adv-x="586" unicode="Ý" d="M234 696l58 147h129l-96 -147h-91zM232 0v261l-225 398h132l154 -291h2l153 291h130l-225 -399v-260h-121z"/>
<glyph glyph-name="Thorn" horiz-adv-x="545" unicode="Þ" d="M200 218h36q47 0 77 14q55 28 55 104q0 70 -52 100q-29 18 -82 18h-34v-236zM80 0v659h120v-107h39q91 0 148 -28q107 -54 107 -188q0 -63 -30.5 -114.5t-95.5 -78.5q-55 -23 -140 -23h-28v-120h-120z"/>
<glyph glyph-name="germandbls" horiz-adv-x="614" unicode="ß" d="M55 -141v616q0 68 21 116.5t56.5 72.5t71 34t74.5 10q97 0 161.5 -57.5t64.5 -174.5q0 -17 -1 -25q-93 -21 -93 -71q0 -21 17.5 -39t42.5 -34t50.5 -35.5t43 -52t17.5 -74.5q0 -78 -55.5 -116.5t-134.5 -38.5q-93 0 -159 42l37 87q58 -35 116 -35q79 0 79 56 q0 23 -17.5 42.5t-43 35.5t-50.5 34t-42.5 46.5t-17.5 64.5q0 90 94 130q-1 53 -28 86t-79 33q-48 0 -77 -29.5t-29 -93.5v-630h-119z"/>
<glyph glyph-name="agrave" horiz-adv-x="492" unicode="à" d="M216 531l-97 147h130l58 -147h-91zM316 220l-64 -2q-45 -1 -69 -15q-29 -16 -29 -54q0 -31 19 -48t51 -17q49 0 92 35v101zM344 0l-18 45q-60 -55 -136 -55q-68 0 -112.5 42t-44.5 109q0 88 80 129q46 24 122 27l81 3v15q0 79 -91 79q-62 0 -124 -33l-39 77q85 47 183 47 q190 0 190 -172v-192q0 -89 9 -121h-100z"/>
<glyph glyph-name="aacute" horiz-adv-x="492" unicode="á" d="M186 531l58 147h129l-96 -147h-91zM316 220l-64 -2q-45 -1 -69 -15q-29 -16 -29 -54q0 -31 19 -48t51 -17q49 0 92 35v101zM344 0l-18 45q-60 -55 -136 -55q-68 0 -112.5 42t-44.5 109q0 88 80 129q46 24 122 27l81 3v15q0 79 -91 79q-62 0 -124 -33l-39 77q85 47 183 47 q190 0 190 -172v-192q0 -89 9 -121h-100z"/>
<glyph glyph-name="acircumflex" horiz-adv-x="492" unicode="â" d="M98 531l100 147h96l101 -147h-94l-55 79l-54 -79h-94zM316 220l-64 -2q-45 -1 -69 -15q-29 -16 -29 -54q0 -31 19 -48t51 -17q49 0 92 35v101zM344 0l-18 45q-60 -55 -136 -55q-68 0 -112.5 42t-44.5 109q0 88 80 129q46 24 122 27l81 3v15q0 79 -91 79q-62 0 -124 -33 l-39 77q85 47 183 47q190 0 190 -172v-192q0 -89 9 -121h-100z"/>
<glyph glyph-name="atilde" horiz-adv-x="492" unicode="ã" d="M90 547v39q0 39 23 61t59 22q32 0 75.5 -22t55.5 -22q14 0 18 8.5t4 29.5h78v-39q0 -39 -23 -61t-59 -22q-31 0 -75 22t-56 22q-14 0 -18 -8.5t-4 -29.5h-78zM316 220l-64 -2q-45 -1 -69 -15q-29 -16 -29 -54q0 -31 19 -48t51 -17q49 0 92 35v101zM344 0l-18 45 q-60 -55 -136 -55q-68 0 -112.5 42t-44.5 109q0 88 80 129q46 24 122 27l81 3v15q0 79 -91 79q-62 0 -124 -33l-39 77q85 47 183 47q190 0 190 -172v-192q0 -89 9 -121h-100z"/>
<glyph glyph-name="adieresis" horiz-adv-x="492" unicode="ä" d="M342 544q-26 0 -43.5 18t-17.5 43q0 26 17.5 44t43.5 18q25 0 43 -18t18 -44q0 -25 -18 -43t-43 -18zM151 544q-25 0 -43 18t-18 43q0 26 18 44t43 18q26 0 44 -18t18 -44q0 -25 -18 -43t-44 -18zM316 220l-64 -2q-45 -1 -69 -15q-29 -16 -29 -54q0 -31 19 -48t51 -17 q49 0 92 35v101zM344 0l-18 45q-60 -55 -136 -55q-68 0 -112.5 42t-44.5 109q0 88 80 129q46 24 122 27l81 3v15q0 79 -91 79q-62 0 -124 -33l-39 77q85 47 183 47q190 0 190 -172v-192q0 -89 9 -121h-100z"/>
<glyph glyph-name="aring" horiz-adv-x="492" unicode="å" d="M247 574q18 0 29.5 12.5t11.5 33.5t-11.5 33.5t-29.5 12.5q-19 0 -30 -12t-11 -34t11 -34t30 -12zM247 523q-52 0 -84.5 26t-32.5 71t32.5 71t84.5 26t84.5 -26t32.5 -71t-32.5 -71t-84.5 -26zM316 220l-64 -2q-45 -1 -69 -15q-29 -16 -29 -54q0 -31 19 -48t51 -17 q49 0 92 35v101zM344 0l-18 45q-60 -55 -136 -55q-68 0 -112.5 42t-44.5 109q0 88 80 129q46 24 122 27l81 3v15q0 79 -91 79q-62 0 -124 -33l-39 77q85 47 183 47q190 0 190 -172v-192q0 -89 9 -121h-100z"/>
<glyph glyph-name="ae" horiz-adv-x="778" unicode="æ" d="M441 291h180q-2 43 -24 73t-65 30q-42 0 -65.5 -29.5t-25.5 -73.5zM225 84q66 0 114 52q-11 31 -13 72h-84q-88 0 -88 -61q0 -30 19.5 -46.5t51.5 -16.5zM199 -10q-74 0 -120 41t-46 110q0 78 56.5 114t144.5 36h89v24q0 40 -26 59.5t-70 19.5q-65 0 -126 -34l-39 78 q85 47 181 47q108 0 147 -71h2q53 71 148 71q94 0 148 -66.5t54 -186.5v-24h-300q1 -58 36 -91t95 -33q63 0 120 32l35 -82q-71 -44 -166 -44q-122 0 -185 78q-69 -78 -178 -78z"/>
<glyph glyph-name="ccedilla" horiz-adv-x="448" unicode="ç" d="M144 -201l17 55q24 -8 47 -8q49 0 49 32q0 15 -12 22.5t-26.5 9t-42.5 2.5l26 86q-80 21 -123.5 84t-43.5 151q0 109 71.5 180.5t178.5 71.5q77 0 127 -32v-101q-51 37 -115 37q-65 0 -102.5 -43t-37.5 -110q0 -72 36 -111t98 -39q51 0 110 32l35 -82q-27 -19 -69 -32 t-78 -13h-1l-13 -40q84 -7 84 -74q0 -40 -35.5 -64.5t-104.5 -24.5q-42 0 -75 11z"/>
<glyph glyph-name="egrave" horiz-adv-x="493" unicode="è" d="M221 531l-97 147h130l58 -147h-91zM155 287h183q-1 45 -24 76t-67 31q-42 0 -66.5 -31t-25.5 -76zM459 204h-303q2 -55 38.5 -87.5t95.5 -32.5q62 0 119 32l36 -82q-71 -44 -167 -44q-121 0 -181.5 70.5t-60.5 175.5q0 109 57 179t156 70t154.5 -67.5t55.5 -185.5v-28z "/>
<glyph glyph-name="eacute" horiz-adv-x="493" unicode="é" d="M191 531l58 147h129l-96 -147h-91zM155 287h183q-1 45 -24 76t-67 31q-42 0 -66.5 -31t-25.5 -76zM459 204h-303q2 -55 38.5 -87.5t95.5 -32.5q62 0 119 32l36 -82q-71 -44 -167 -44q-121 0 -181.5 70.5t-60.5 175.5q0 109 57 179t156 70t154.5 -67.5t55.5 -185.5v-28z "/>
<glyph glyph-name="ecircumflex" horiz-adv-x="493" unicode="ê" d="M103 531l100 147h96l101 -147h-94l-55 79l-54 -79h-94zM155 287h183q-1 45 -24 76t-67 31q-42 0 -66.5 -31t-25.5 -76zM459 204h-303q2 -55 38.5 -87.5t95.5 -32.5q62 0 119 32l36 -82q-71 -44 -167 -44q-121 0 -181.5 70.5t-60.5 175.5q0 109 57 179t156 70t154.5 -67.5 t55.5 -185.5v-28z"/>
<glyph glyph-name="edieresis" horiz-adv-x="493" unicode="ë" d="M347 544q-25 0 -43 18t-18 43q0 26 17.5 44t43.5 18q25 0 43 -18t18 -44q0 -25 -18 -43t-43 -18zM156 544q-25 0 -43 18t-18 43q0 26 18 44t43 18q26 0 44 -18t18 -44q0 -25 -18 -43t-44 -18zM155 287h183q-1 45 -24 76t-67 31q-42 0 -66.5 -31t-25.5 -76zM459 204h-303 q2 -55 38.5 -87.5t95.5 -32.5q62 0 119 32l36 -82q-71 -44 -167 -44q-121 0 -181.5 70.5t-60.5 175.5q0 109 57 179t156 70t154.5 -67.5t55.5 -185.5v-28z"/>
<glyph glyph-name="igrave" horiz-adv-x="238" unicode="ì" d="M59 0v473h120v-473h-120zM89 531l-97 147h130l58 -147h-91z"/>
<glyph glyph-name="iacute" horiz-adv-x="238" unicode="í" d="M59 0v473h120v-473h-120zM59 531l58 147h129l-96 -147h-91z"/>
<glyph glyph-name="icircumflex" horiz-adv-x="238" unicode="î" d="M-29 531l100 147h96l101 -147h-94l-55 79l-54 -79h-94zM59 0v473h120v-473h-120z"/>
<glyph glyph-name="idieresis" horiz-adv-x="238" unicode="ï" d="M59 0v473h120v-473h-120zM215 544q-25 0 -43 18t-18 43q0 26 17.5 44t43.5 18q25 0 43 -18t18 -44q0 -25 -18 -43t-43 -18zM24 544q-25 0 -43 18t-18 43q0 26 18 44t43 18q26 0 44 -18t18 -44q0 -25 -18 -43t-44 -18z"/>
<glyph glyph-name="eth" horiz-adv-x="553" unicode="ð" d="M272 85q55 0 84 40t29 109q0 68 -31 108t-85 40q-55 0 -83.5 -41t-28.5 -109t30.5 -107.5t84.5 -39.5zM477 654l-91 -41q121 -107 121 -320q0 -157 -66.5 -230t-172.5 -73q-103 0 -168 67.5t-65 173.5q0 110 57.5 178t157.5 68q48 0 89 -20t66 -51h2q-25 108 -114 160 l-137 -63l-25 54l86 37q-42 16 -121 18l22 96q131 -4 215 -56l118 56z"/>
<glyph glyph-name="ntilde" horiz-adv-x="537" unicode="ñ" d="M101 547v39q0 39 23 61t59 22q32 0 75.5 -22t55.5 -22q14 0 18 8.5t4 29.5h78v-39q0 -39 -23 -61t-59 -22q-31 0 -75 22t-56 22q-14 0 -18 -8.5t-4 -29.5h-78zM55 0v473h102l12 -53q83 65 162 65q65 0 108.5 -39.5t43.5 -132.5v-313h-120v276q0 50 -15.5 77.5t-57.5 27.5 q-56 0 -116 -50v-331h-119z"/>
<glyph glyph-name="ograve" horiz-adv-x="542" unicode="ò" d="M238 531l-97 147h130l58 -147h-91zM271 86q55 0 84.5 42t29.5 110t-29.5 109.5t-84.5 41.5t-84.5 -41.5t-29.5 -109.5t29.5 -110t84.5 -42zM271 -10q-105 0 -170.5 70t-65.5 178q0 107 65.5 177t170.5 70t171 -70t66 -177t-66 -177.5t-171 -70.5z"/>
<glyph glyph-name="oacute" horiz-adv-x="542" unicode="ó" d="M214 531l58 147h129l-96 -147h-91zM271 86q55 0 84.5 42t29.5 110t-29.5 109.5t-84.5 41.5t-84.5 -41.5t-29.5 -109.5t29.5 -110t84.5 -42zM271 -10q-105 0 -170.5 70t-65.5 178q0 107 65.5 177t170.5 70t171 -70t66 -177t-66 -177.5t-171 -70.5z"/>
<glyph glyph-name="ocircumflex" horiz-adv-x="542" unicode="ô" d="M122 531l100 147h96l101 -147h-94l-55 79l-54 -79h-94zM271 86q55 0 84.5 42t29.5 110t-29.5 109.5t-84.5 41.5t-84.5 -41.5t-29.5 -109.5t29.5 -110t84.5 -42zM271 -10q-105 0 -170.5 70t-65.5 178q0 107 65.5 177t170.5 70t171 -70t66 -177t-66 -177.5t-171 -70.5z"/>
<glyph glyph-name="otilde" horiz-adv-x="542" unicode="õ" d="M114 547v39q0 39 23 61t59 22q32 0 75.5 -22t55.5 -22q14 0 18 8.5t4 29.5h78v-39q0 -39 -23 -61t-59 -22q-31 0 -75 22t-56 22q-14 0 -18 -8.5t-4 -29.5h-78zM271 86q55 0 84.5 42t29.5 110t-29.5 109.5t-84.5 41.5t-84.5 -41.5t-29.5 -109.5t29.5 -110t84.5 -42z M271 -10q-105 0 -170.5 70t-65.5 178q0 107 65.5 177t170.5 70t171 -70t66 -177t-66 -177.5t-171 -70.5z"/>
<glyph glyph-name="odieresis" horiz-adv-x="542" unicode="ö" d="M366 544q-26 0 -43.5 18t-17.5 43q0 26 17.5 44t43.5 18q25 0 43 -18t18 -44q0 -25 -18 -43t-43 -18zM175 544q-25 0 -43 18t-18 43q0 26 18 44t43 18q26 0 44 -18t18 -44q0 -25 -18 -43t-44 -18zM271 86q55 0 84.5 42t29.5 110t-29.5 109.5t-84.5 41.5t-84.5 -41.5 t-29.5 -109.5t29.5 -110t84.5 -42zM271 -10q-105 0 -170.5 70t-65.5 178q0 107 65.5 177t170.5 70t171 -70t66 -177t-66 -177.5t-171 -70.5z"/>
<glyph glyph-name="divide" d="M278 16q-25 0 -43 18t-18 44t18 44t43 18q26 0 43.5 -18t17.5 -44t-17.5 -44t-43.5 -18zM40 201v99h471v-99h-471zM278 360q-25 0 -43 18t-18 44t18 44t43 18q26 0 43.5 -18t17.5 -44t-17.5 -44t-43.5 -18z" unicode="÷"/>
<glyph glyph-name="oslash" horiz-adv-x="542" unicode="ø" d="M169 158l165 212q-27 21 -63 21q-55 0 -86 -43t-31 -110q0 -47 15 -80zM208 105q26 -21 63 -21q55 0 86 43t31 111q0 44 -14 80zM106 -27l-50 39l41 52q-62 70 -62 174q0 107 65.5 177t170.5 70q68 0 124 -35l37 48l51 -39l-38 -48q63 -71 63 -173q0 -107 -66 -177.5 t-171 -70.5q-69 0 -125 35z"/>
<glyph glyph-name="ugrave" horiz-adv-x="535" unicode="ù" d="M233 531l-97 147h130l58 -147h-91zM213 -10q-42 0 -82 21.5t-60 71.5q-16 38 -16 99v291h119v-279q0 -38 10 -59q18 -43 71 -43q59 0 97 42v339h120v-356q0 -88 8 -117h-102l-18 49q-66 -59 -147 -59z"/>
<glyph glyph-name="uacute" horiz-adv-x="535" unicode="ú" d="M207 531l58 147h129l-96 -147h-91zM213 -10q-42 0 -82 21.5t-60 71.5q-16 38 -16 99v291h119v-279q0 -38 10 -59q18 -43 71 -43q59 0 97 42v339h120v-356q0 -88 8 -117h-102l-18 49q-66 -59 -147 -59z"/>
<glyph glyph-name="ucircumflex" horiz-adv-x="535" unicode="û" d="M118 531l100 147h96l101 -147h-94l-55 79l-54 -79h-94zM213 -10q-42 0 -82 21.5t-60 71.5q-16 38 -16 99v291h119v-279q0 -38 10 -59q18 -43 71 -43q59 0 97 42v339h120v-356q0 -88 8 -117h-102l-18 49q-66 -59 -147 -59z"/>
<glyph glyph-name="udieresis" horiz-adv-x="535" unicode="ü" d="M362 544q-26 0 -43.5 18t-17.5 43q0 26 17.5 44t43.5 18q25 0 43 -18t18 -44q0 -25 -18 -43t-43 -18zM171 544q-25 0 -43 18t-18 43q0 26 18 44t43 18q26 0 44 -18t18 -44q0 -25 -18 -43t-44 -18zM213 -10q-42 0 -82 21.5t-60 71.5q-16 38 -16 99v291h119v-279 q0 -38 10 -59q18 -43 71 -43q59 0 97 42v339h120v-356q0 -88 8 -117h-102l-18 49q-66 -59 -147 -59z"/>
<glyph glyph-name="yacute" horiz-adv-x="518" unicode="ý" d="M207 531l58 147h129l-96 -147h-91zM513 473l-181 -488q-27 -71 -55.5 -117.5t-60 -68t-58.5 -29t-64 -7.5q-56 0 -106 22l30 94q35 -19 71 -19q42 0 73.5 32.5t58.5 110.5l-213 470h127l140 -334h2l113 334h123z"/>
<glyph glyph-name="thorn" horiz-adv-x="533" unicode="þ" d="M180 101q28 -12 64 -12q64 0 98 40.5t34 110.5q0 72 -37.5 109.5t-101.5 37.5q-31 0 -57 -9v-277zM61 -237v945h119v-231q32 8 75 8q116 0 180 -65.5t64 -175.5q0 -111 -67.5 -182.5t-180.5 -71.5q-35 0 -71 11v-238h-119z"/>
<glyph glyph-name="OE" horiz-adv-x="916" unicode="Œ" d="M396 91q56 0 97 11v449q-46 13 -103 13q-83 0 -133 -48q-74 -63 -74 -189q0 -136 83 -196q52 -40 130 -40zM858 0h-247q-51 0 -124.5 -5t-99.5 -5q-127 0 -210 64q-122 89 -122 270q0 89 34 161.5t97 118.5q84 61 208 61q24 0 95 -3t130 -3h238l-33 -102h-210v-172h211 v-102h-211v-181h244v-102z"/>
<glyph glyph-name="oe" horiz-adv-x="844" unicode="œ" d="M505 287h183q-1 45 -23.5 76t-67.5 31q-42 0 -66.5 -31t-25.5 -76zM271 85q54 0 83.5 42t29.5 111q0 68 -29.5 110t-83.5 42q-55 0 -84.5 -42t-29.5 -110t29.5 -110.5t84.5 -42.5zM268 -10q-103 0 -168 70.5t-65 177.5t64.5 177t165.5 70q118 0 175 -90h2q53 90 159 90 q94 0 151 -68t57 -185v-28h-303q2 -55 38.5 -87.5t95.5 -32.5q63 0 120 32l35 -82q-71 -44 -166 -44q-124 0 -186 91h-2q-58 -91 -173 -91z"/>
<glyph glyph-name="Scaron" horiz-adv-x="530" unicode="Š" d="M215 696l-101 147h95l55 -79l54 79h93l-100 -147h-96zM48 47l47 92q69 -48 149 -48q46 0 78 19t32 59q0 35 -29.5 62t-71 47t-83.5 43.5t-71.5 64.5t-29.5 97q0 76 57.5 129t156.5 53q95 0 161 -33v-110q-81 42 -157 42q-39 0 -64.5 -17t-25.5 -54q0 -33 29.5 -58.5 t71.5 -45t83.5 -43.5t71 -66.5t29.5 -100.5q0 -86 -66 -137.5t-169 -51.5q-118 0 -199 57z"/>
<glyph glyph-name="scaron" horiz-adv-x="420" unicode="š" d="M165 531l-101 147h95l55 -78l54 78h93l-100 -147h-96zM21 36l37 87q61 -39 129 -39q83 0 83 50q0 22 -23 37t-55.5 26t-65 26t-55.5 45t-23 74q0 64 48.5 103.5t130.5 39.5q75 0 139 -23v-101q-71 30 -134 30q-67 0 -67 -43q0 -20 23 -34t55.5 -25.5t65 -27t55.5 -47 t23 -77.5q0 -74 -54.5 -110.5t-137.5 -36.5q-99 0 -174 46z"/>
<glyph glyph-name="Ydieresis" horiz-adv-x="586" unicode="Ÿ" d="M390 701q-26 0 -43.5 17.5t-17.5 43.5t18 44t43 18t43 -18.5t18 -43.5t-18 -43t-43 -18zM199 701q-25 0 -43 18t-18 43t18 43.5t43 18.5t43.5 -18t18.5 -44q0 -25 -18 -43t-44 -18zM232 0v261l-225 398h132l154 -291h2l153 291h130l-225 -399v-260h-121z"/>
<glyph glyph-name="circumflex" horiz-adv-x="384" unicode="ˆ" d="M43 531l100 147h96l101 -147h-94l-55 79l-54 -79h-94z"/>
<glyph glyph-name="tilde" horiz-adv-x="384" unicode="˜" d="M35 547v39q0 39 23 61t59 22q32 0 75.5 -22t55.5 -22q14 0 18 8.5t4 29.5h78v-39q0 -39 -23 -61t-59 -22q-31 0 -75 22t-56 22q-14 0 -18 -8.5t-4 -29.5h-78z"/>
<glyph glyph-name="Alpha" horiz-adv-x="634" unicode="Α" d="M231 263h163l-46 131q-21 59 -33 102h-2q-7 -26 -34 -103zM9 0l255 662h96l265 -662h-130l-64 165h-235l-62 -165h-125z"/>
<glyph glyph-name="Beta" horiz-adv-x="569" unicode="Β" d="M201 384h57q49 0 75.5 24t26.5 64q0 39 -26 63.5t-77 24.5h-56v-176zM201 99h77q123 0 123 96q0 42 -29.5 66t-80.5 24h-90v-186zM81 0v659h193q100 0 152.5 -48.5t52.5 -118.5q0 -44 -21 -80.5t-59 -55.5v-2q57 -14 90.5 -57.5t33.5 -101.5q0 -82 -61 -138.5t-170 -56.5 h-211z"/>
<glyph glyph-name="Gamma" horiz-adv-x="458" unicode="Γ" d="M81 0v659h374l-33 -102h-220v-557h-121z"/>
<glyph glyph-name="Epsilon" horiz-adv-x="505" unicode="Ε" d="M81 0v659h364l-33 -102h-211v-172h211v-102h-211v-181h245v-102h-365z"/>
<glyph glyph-name="Zeta" horiz-adv-x="571" unicode="Ζ" d="M27 0l327 557h-281l-31 102h503l-321 -557h324v-102h-521z"/>
<glyph glyph-name="Eta" horiz-adv-x="718" unicode="Η" d="M81 0v659h120v-272h315v272h121v-659h-121v285h-315v-285h-120z"/>
<glyph glyph-name="Theta" horiz-adv-x="766" unicode="Θ" d="M523 381v-97h-285v97h285zM383 91q93 0 150 63t57 173q0 109 -56.5 173t-150.5 64q-92 0 -149 -63t-57 -174q0 -110 57 -173t149 -63zM383 -10q-146 0 -239 93t-93 244q0 150 93 244t239 94q147 0 239.5 -94.5t92.5 -243.5q0 -150 -93 -243.5t-239 -93.5z"/>
<glyph glyph-name="Iota" horiz-adv-x="282" unicode="Ι" d="M81 0v659h120v-659h-120z"/>
<glyph glyph-name="Kappa" horiz-adv-x="599" unicode="Κ" d="M81 0v659h120v-281h3l226 281h139l-265 -320l280 -339h-147l-233 289h-3v-289h-120z"/>
<glyph glyph-name="Lambda" horiz-adv-x="638" unicode="Λ" d="M9 0l258 662h98l263 -662h-131l-144 391q-4 12 -34 105h-2q-7 -30 -33 -103l-146 -393h-129z"/>
<glyph glyph-name="Mu" horiz-adv-x="823" unicode="Μ" d="M81 0v659h109l173 -249q41 -60 55 -85h2q26 46 54 89l158 245h110v-659h-121v372q0 61 2 87h-2q-11 -22 -45 -74l-130 -202h-55l-144 207q-37 54 -45 68h-2q1 -26 1 -83v-375h-120z"/>
<glyph glyph-name="Nu" horiz-adv-x="751" unicode="Ν" d="M670 0h-109l-286 376q-10 13 -74 100h-2q2 -26 2 -102v-374h-120v659h119l276 -361q54 -73 73 -102h2q-2 70 -2 111v352h121v-659z"/>
<glyph glyph-name="Xi" horiz-adv-x="554" unicode="Ξ" d="M51 557v102h463l-34 -102h-429zM105 285v102h341v-102h-341zM38 0v102h477v-102h-477z"/>
<glyph glyph-name="Omicron" horiz-adv-x="766" unicode="Ο" d="M385 91q92 0 148 63t56 173q0 109 -55 173t-149 64q-93 0 -148.5 -63t-55.5 -174q0 -110 55.5 -173t148.5 -63zM385 -10q-146 0 -239 93t-93 244q0 150 92.5 244t239.5 94q146 0 239 -94.5t93 -243.5q0 -150 -93.5 -243.5t-238.5 -93.5z"/>
<glyph glyph-name="Pi" horiz-adv-x="689" unicode="Π" d="M81 0v659h527v-659h-121v557h-285v-557h-121z"/>
<glyph glyph-name="Rho" horiz-adv-x="543" unicode="Ρ" d="M201 325h36q49 0 77 15q55 27 55 103q0 70 -52 101q-29 17 -82 17h-34v-236zM81 0v659h159q91 0 148 -28q107 -53 107 -188q0 -63 -30.5 -114.5t-95.5 -78.5q-59 -23 -140 -23h-28v-227h-120z"/>
<glyph glyph-name="Sigma" horiz-adv-x="546" unicode="Σ" d="M18 0l202 346l-193 313h482l-33 -102h-251l124 -208l-140 -247h285v-102h-476z"/>
<glyph glyph-name="Tau" horiz-adv-x="539" unicode="Τ" d="M207 0v557h-192v102h521l-33 -102h-176v-557h-120z"/>
<glyph glyph-name="Upsilon" horiz-adv-x="614" unicode="Υ" d="M248 0v178q0 93 -58 206.5t-180 274.5h135q127 -168 162 -295h3q23 121 161 295h133q-121 -162 -178.5 -269.5t-57.5 -215.5v-174h-120z"/>
<glyph glyph-name="Phi" horiz-adv-x="794" unicode="Φ" d="M457 144q80 10 121 57.5t41 124.5q0 79 -42.5 127.5t-119.5 59.5v-369zM337 144v369q-77 -11 -119.5 -59.5t-42.5 -127.5q0 -77 41 -124.5t121 -57.5zM337 -20v60q-133 14 -209.5 89.5t-76.5 196.5q0 122 77.5 199t208.5 91v58h120v-58q131 -14 208.5 -91t77.5 -199 q0 -121 -76.5 -196.5t-209.5 -89.5v-60h-120z"/>
<glyph glyph-name="Chi" horiz-adv-x="631" unicode="Χ" d="M12 0l236 331l-217 328h136l156 -237l167 237h132l-231 -325l221 -334h-134l-162 243l-172 -243h-132z"/>
<glyph glyph-name="Psi" horiz-adv-x="777" unicode="Ψ" d="M328 0v204q-135 11 -194 92.5t-59 246.5q0 66 5 116h118q-4 -76 -4 -109q0 -116 31 -175t103 -62v346h121v-346q72 3 103 61.5t31 175.5q0 58 -4 109h119q5 -67 5 -116q0 -165 -59.5 -246.5t-194.5 -92.5v-204h-121z"/>
<glyph glyph-name="alpha" horiz-adv-x="594" unicode="α" d="M237 88q76 0 108 154q-41 145 -105 145q-37 0 -61 -41t-24 -108q0 -66 23 -108t59 -42zM224 -10q-83 0 -135.5 67.5t-52.5 180.5q0 108 52 177.5t135 69.5q118 0 164 -135h2q16 65 46 131l98 -43q-58 -114 -91 -203q1 -4 9 -32t13 -40q24 -63 64 -63q16 0 26 5l25 -99 q-27 -11 -62 -11q-62 0 -97 56q-17 27 -31 79h-2q-18 -58 -60.5 -99t-102.5 -41z"/>
<glyph glyph-name="beta" horiz-adv-x="559" unicode="β" d="M185 120q46 -32 104 -32q49 0 80 30t31 82q0 49 -33.5 79t-98.5 30q-15 0 -24 -1v96q6 -1 17 -1q52 0 81.5 27t29.5 78q0 43 -25.5 72.5t-68.5 29.5q-42 0 -67.5 -30t-25.5 -83v-377zM66 -237v733q0 106 58.5 159t152.5 53q102 0 159 -57t57 -134q0 -59 -26.5 -99 t-70.5 -56v-2q56 -13 90.5 -58.5t34.5 -106.5q0 -92 -61.5 -148.5t-158.5 -56.5q-66 0 -114 28h-2v-255h-119z"/>
<glyph glyph-name="gamma" horiz-adv-x="569" unicode="γ" d="M301 143h3q43 198 173 342q14 -13 41 -39t41 -39q-78 -92 -132 -196t-84 -251v-197h-127q0 102 13 193q-4 117 -20.5 211t-51.5 156.5t-82 62.5q-15 0 -35 -6l-26 92q33 13 73 13q56 0 97.5 -29.5t65 -80.5t35.5 -108t16 -124z"/>
<glyph glyph-name="delta" horiz-adv-x="547" unicode="δ" d="M389 213q0 51 -28 87.5t-79 73.5q-59 -20 -92 -62t-33 -99t30 -92t83 -35t86 35.5t33 91.5zM198 434v2q-39 32 -59.5 61.5t-20.5 69.5q0 64 49.5 102.5t125.5 38.5q110 0 216 -47l-36 -93q-98 43 -170 43q-65 0 -65 -45q0 -23 28 -48.5t68 -52.5t79.5 -59.5t67.5 -81.5 t28 -107q0 -93 -65 -160t-175 -67q-105 0 -169 63t-64 156q0 81 44 138.5t118 86.5z"/>
<glyph glyph-name="epsilon" horiz-adv-x="470" unicode="ε" d="M260 -10q-107 0 -164 43.5t-57 107.5q0 82 83 105v2q-73 26 -73 100q0 60 53 98.5t144 38.5q92 0 165 -28v-96q-75 33 -155 33q-42 0 -66 -14.5t-24 -40.5q0 -24 25.5 -39.5t78.5 -15.5q29 0 79 2v-86q-22 3 -77 3q-116 0 -116 -59q0 -63 110 -63q75 0 153 39l36 -78 q-93 -52 -195 -52z"/>
<glyph glyph-name="zeta" horiz-adv-x="466" unicode="ζ" d="M279 -143q2 3 10 14.5t11 17t9 16t9 17.5t5.5 16t2.5 16q0 19 -16 32.5t-41 22.5t-55.5 18.5t-61 25t-55.5 37t-41 59.5t-16 88q0 120 70.5 219.5t189.5 161.5v3q-108 -30 -221 -35l-26 95q165 0 383 27l6 -68q-280 -166 -280 -384q0 -53 29.5 -85t72 -46t85 -27t72 -40 t29.5 -73q0 -72 -75 -176z"/>
<glyph glyph-name="eta" horiz-adv-x="597" unicode="η" d="M107 0v329q0 50 -33 50q-14 0 -28 -6l-24 96q39 16 78 16q85 0 107 -73h2q89 73 175 73q64 0 107 -39.5t43 -132.5v-550h-119v513q0 50 -15.5 77.5t-57.5 27.5q-56 0 -116 -50v-331h-119z"/>
<glyph glyph-name="theta" horiz-adv-x="549" unicode="θ" d="M162 402h224q-3 106 -29.5 157.5t-81.5 51.5q-56 0 -82.5 -51.5t-30.5 -157.5zM274 87q57 0 83.5 54t29.5 168h-225q2 -113 28 -167.5t84 -54.5zM274 -10q-117 0 -176 91.5t-59 267.5q0 359 236 359q117 0 176 -91.5t59 -267.5q0 -359 -236 -359z"/>
<glyph glyph-name="iota" horiz-adv-x="288" unicode="ι" d="M182 -7q-126 0 -126 121v359h120v-336q0 -41 40 -41q17 0 33 7l24 -94q-37 -16 -91 -16z"/>
<glyph glyph-name="kappa" horiz-adv-x="560" unicode="κ" d="M180 0h-119v473h119v-204h2q59 67 146.5 126t165.5 90l37 -104q-92 -31 -202 -113l206 -268h-138l-154 204q-29 -24 -63 -62v-142z"/>
<glyph glyph-name="lambda" horiz-adv-x="518" unicode="λ" d="M9 0l215 473q-29 83 -50.5 110t-57.5 27q-28 0 -62 -16l-31 91q51 23 104 23q81 0 124 -48.5t88 -174.5l175 -485h-125l-111 334h-2l-140 -334h-127z"/>
<glyph glyph-name="uni03BC" horiz-adv-x="581" unicode="μ" d="M359 212v261h119v-309q0 -38 10 -51.5t32 -13.5q14 0 28 6l23 -95q-36 -17 -78 -17q-43 0 -70.5 23.5t-34.5 65.5h-2q-40 -92 -126 -92q-53 0 -81 34h-2q4 -56 4 -129v-132h-119v710h119v-286q0 -44 22 -69.5t61 -25.5q38 0 66.5 30.5t28.5 89.5z"/>
<glyph glyph-name="nu" horiz-adv-x="500" unicode="ν" d="M174 -3l-167 476h121l115 -346h2q96 96 96 216q0 63 -27 130h128q22 -61 22 -125q0 -91 -51 -174t-154 -177h-85z"/>
<glyph glyph-name="xi" horiz-adv-x="470" unicode="ξ" d="M289 -142q42 55 42 87q0 28 -29.5 45.5t-71.5 28.5t-84 26t-71.5 49.5t-29.5 86.5q0 55 34.5 96t96.5 61v2q-93 26 -93 103q0 102 168 174v3q-107 -24 -177 -27l-26 96q239 0 392 19l7 -68q-241 -79 -241 -178q0 -74 126 -74q14 0 65 3v-95q-27 4 -68 4q-68 0 -114.5 -25 t-46.5 -74q0 -33 29.5 -53t71.5 -31.5t84 -25t71.5 -44t29.5 -77.5q0 -64 -70 -161z"/>
<glyph glyph-name="omicron" horiz-adv-x="545" unicode="ο" d="M272 86q55 0 84.5 42t29.5 110t-29.5 109.5t-84.5 41.5t-84.5 -41.5t-29.5 -109.5t29.5 -110t84.5 -42zM272 -10q-105 0 -170.5 70t-65.5 178q0 107 65.5 177t170.5 70t171 -70t66 -177t-66 -177.5t-171 -70.5z"/>
<glyph glyph-name="pi" horiz-adv-x="641" unicode="π" d="M112 0v380h-89v93h596l-28 -93h-89v-240q0 -41 33 -41q13 0 25 5l23 -96q-37 -15 -81 -15q-120 0 -120 119v268h-151v-380h-119z"/>
<glyph glyph-name="rho" horiz-adv-x="551" unicode="ρ" d="M181 115q40 -28 89 -28q61 0 92 43.5t31 111.5q0 71 -31.5 108.5t-79.5 37.5q-101 0 -101 -140v-133zM62 -237v485q0 115 57.5 176t160.5 61q108 0 172 -65.5t64 -179.5q0 -110 -64.5 -180t-167.5 -70q-57 0 -101 26h-2v-253h-119z"/>
<glyph glyph-name="sigmafinal" horiz-adv-x="447" unicode="ς" d="M246 -141q47 64 47 94q0 23 -19 41.5t-47.5 30t-62 29.5t-62 40t-47.5 63t-19 96q0 106 65.5 169t168.5 63q84 0 136 -32v-101q-51 37 -124 37q-61 0 -92.5 -36t-31.5 -92q0 -47 26 -78.5t63.5 -48.5l75 -34t63.5 -46t26 -73q0 -70 -72 -172z"/>
<glyph glyph-name="sigma" horiz-adv-x="584" unicode="σ" d="M157 223q0 -63 26 -100t77 -37q52 0 78.5 39t26.5 104q0 82 -49 149h-16q-74 0 -108.5 -42.5t-34.5 -112.5zM432 381v-2q52 -69 52 -159q0 -99 -61.5 -164.5t-163.5 -65.5t-162.5 65t-60.5 170q0 116 67 182t184 66h301l-29 -97h-51q-39 0 -76 5z"/>
<glyph glyph-name="tau" horiz-adv-x="459" unicode="τ" d="M303 -10q-71 0 -113.5 35t-42.5 102v253h-130v93h437l-29 -93h-158v-238q0 -56 57 -56q40 0 72 21l35 -82q-55 -35 -128 -35z"/>
<glyph glyph-name="upsilon" horiz-adv-x="582" unicode="υ" d="M8 469q41 16 84 16q111 0 111 -128q0 -20 -4 -63t-4 -65q0 -143 102 -143q57 0 86 46.5t29 128.5q0 46 -17 105.5t-50 106.5h123q66 -97 66 -218q0 -119 -62 -192t-177 -73q-105 0 -162 57t-57 160q0 27 3.5 68.5t3.5 58.5q0 44 -30 44q-9 0 -21 -5z"/>
<glyph glyph-name="phi" horiz-adv-x="706" unicode="φ" d="M412 85q60 8 99.5 50.5t39.5 103.5t-39.5 103t-99.5 50v-307zM294 85v307q-60 -8 -99.5 -50.5t-39.5 -103.5t39.5 -103t99.5 -50zM294 -237v227q-116 13 -187 81.5t-71 166.5q0 99 71 167.5t187 81.5v221h118v-221q116 -13 187 -81.5t71 -166.5q0 -99 -71 -167.5 t-187 -81.5v-227h-118z"/>
<glyph glyph-name="chi" horiz-adv-x="536" unicode="χ" d="M127 -237h-127l209 377q-42 138 -67.5 191t-63.5 53q-14 0 -31 -5l-26 92q33 13 74 13q65 0 106.5 -53t80.5 -181h2l118 223h125l-194 -349q58 -174 72 -204q30 -60 67 -62q16 0 30 6l27 -92q-33 -13 -74 -13q-69 0 -111 58t-83 198h-2z"/>
<glyph glyph-name="psi" horiz-adv-x="723" unicode="ψ" d="M417 -237h-118v227q-117 6 -182 63.5t-65 162.5q0 23 5 66.5t5 68.5q0 61 -25 122h117q27 -53 27 -123q0 -20 -4 -60.5t-4 -64.5q0 -61 31.5 -98.5t94.5 -41.5v623h118v-623q71 5 110 52.5t39 128.5q0 121 -61 207h123q60 -93 60 -216q0 -116 -72 -187.5t-199 -78.5v-228 z"/>
<glyph glyph-name="endash" horiz-adv-x="450" unicode="–" d="M0 207v88h450v-88h-450z"/>
<glyph glyph-name="emdash" horiz-adv-x="800" unicode="—" d="M0 207v88h800v-88h-800z"/>
<glyph glyph-name="quoteleft" horiz-adv-x="230" unicode="‘" d="M81 436q-35 64 -35 135q0 73 38 149l75 -12q-12 -41 -12 -86q0 -65 34 -138z"/>
<glyph glyph-name="quotesinglbase" horiz-adv-x="230" unicode="‚" d="M150 120q35 -67 35 -135q0 -73 -38 -149l-75 12q12 46 12 86q0 63 -35 138z"/>
<glyph glyph-name="quotedblleft" horiz-adv-x="419" unicode="“" d="M270 436q-35 64 -35 135q0 73 38 149l75 -12q-12 -41 -12 -86q0 -65 34 -138zM81 436q-35 64 -35 135q0 73 38 149l75 -12q-12 -41 -12 -86q0 -65 34 -138z"/>
<glyph glyph-name="quotedblright" horiz-adv-x="419" unicode="”" d="M150 720q35 -67 35 -135q0 -73 -38 -149l-75 12q12 46 12 86q0 63 -35 138zM339 720q35 -67 35 -135q0 -73 -38 -149l-75 12q12 46 12 86q0 63 -35 138z"/>
<glyph glyph-name="dagger" horiz-adv-x="526" unicode="†" d="M206 -49v160q0 76 3 159t3 98v18q-15 0 -71.5 -6.5t-80.5 -6.5v120q24 -1 80.5 -8t72.5 -8v5q0 21 -5.5 76t-5.5 78h122q0 -23 -5.5 -78t-5.5 -76v-5q16 1 73 8t81 8v-120q-25 0 -81.5 6.5t-71.5 6.5v-18q0 -15 3 -98t3 -159v-160h-114z"/>
<glyph glyph-name="daggerdbl" horiz-adv-x="526" unicode="‡" d="M202 -49q0 22 5.5 77t5.5 76v5q-14 -1 -71.5 -8t-81.5 -7v120q24 0 80.5 -7t71.5 -7v11q0 10 -1 36t-1 44q0 19 1 47t1 37v11q-15 0 -71.5 -6.5t-80.5 -6.5v120q24 -1 80.5 -8t72.5 -8v5q0 21 -5.5 76t-5.5 78h122q0 -23 -5.5 -78t-5.5 -76v-5q16 1 73 8t81 8v-120 q-25 0 -81.5 6.5t-71.5 6.5v-8q0 -10 1.5 -38.5t1.5 -48.5q0 -19 -1.5 -46t-1.5 -37v-8q15 0 71.5 7t81.5 7v-120q-25 0 -82.5 7t-71.5 8v-5q0 -21 5.5 -76t5.5 -77h-122z"/>
<glyph glyph-name="ellipsis" horiz-adv-x="902" unicode="…" d="M729 -9q-28 0 -47.5 20t-19.5 49t19.5 48.5t47.5 19.5t47.5 -19.5t19.5 -48.5t-19.5 -49t-47.5 -20zM451 -9q-28 0 -47.5 20t-19.5 49t19.5 48.5t47.5 19.5t47.5 -19.5t19.5 -48.5t-19.5 -49t-47.5 -20zM173 -9q-28 0 -47.5 20t-19.5 49t19.5 48.5t47.5 19.5t47.5 -19.5 t19.5 -48.5t-19.5 -49t-47.5 -20z"/>
<glyph glyph-name="perthousand" horiz-adv-x="1257" unicode="‰" d="M187 0l416 659h97l-415 -659h-98zM1043 62q32 0 48.5 28.5t16.5 76.5t-16.5 76t-48.5 28t-49 -28t-17 -76t17 -76.5t49 -28.5zM1043 -10q-71 0 -115.5 45.5t-44.5 131.5q0 85 44.5 130.5t115.5 45.5t115.5 -45.5t44.5 -130.5q0 -86 -44.5 -131.5t-115.5 -45.5zM675 62 q32 0 48.5 28.5t16.5 76.5t-16.5 76t-48.5 28t-49 -28t-17 -76t17 -76.5t49 -28.5zM675 -10q-71 0 -115.5 45.5t-44.5 131.5q0 85 44.5 130.5t115.5 45.5t115.5 -45.5t44.5 -130.5q0 -86 -44.5 -131.5t-115.5 -45.5zM214 384q32 0 48.5 28.5t16.5 76.5t-16.5 76t-48.5 28 t-49 -28t-17 -76t17 -76.5t49 -28.5zM214 312q-71 0 -115.5 45.5t-44.5 131.5q0 85 44.5 130.5t115.5 45.5t115.5 -45.5t44.5 -130.5q0 -86 -44.5 -131.5t-115.5 -45.5z"/>
<glyph glyph-name="guilsinglleft" horiz-adv-x="358" unicode="‹" d="M293 402l-124 -161l124 -161l-86 -48l-170 209l170 209z"/>
<glyph glyph-name="guilsinglright" horiz-adv-x="358" unicode="›" d="M189 241l-124 161l86 48l170 -209l-170 -209l-86 48z"/>
<glyph glyph-name="fraction" horiz-adv-x="157" unicode="⁄" d="M-178 0l415 659h98l-416 -659h-97z"/>
<glyph glyph-name="Euro" horiz-adv-x="545" unicode="€" d="M484 129l45 -94q-69 -45 -170 -45q-109 0 -177.5 58.5t-91.5 160.5h-69v75h58q-2 26 -2 39q0 24 3 48h-59v75h73q28 99 98.5 159t171.5 60q79 0 136 -30v-112q-62 38 -123 38q-52 0 -91 -30t-59 -85h243l-25 -75h-236q-3 -18 -3 -45q0 -24 2 -42h230l-26 -75h-188 q40 -115 146 -115q63 0 114 35z"/>
<glyph glyph-name="trademark" horiz-adv-x="868" unicode="™" d="M376 264v395h84l85 -120q21 -30 44 -70h2q17 31 41 67l84 123h89v-395h-97v176q0 40 3 72h-2q-14 -27 -34 -56l-63 -90h-43l-62 90q-24 35 -35 56h-2q3 -21 3 -72v-176h-97zM128 264v316h-112v79h334l-19 -79h-106v-316h-97z"/>
<glyph glyph-name="partialdiff" horiz-adv-x="534" unicode="∂" d="M238 85q53 0 91.5 58.5t42.5 172.5q-40 24 -88 24q-58 0 -95 -41t-37 -107q0 -51 24 -79t62 -28zM228 -10q-91 0 -144.5 53.5t-53.5 146.5q0 109 67.5 177t169.5 68q54 0 97 -21l2 1q-11 72 -49 113.5t-98 41.5q-65 0 -129 -35l-33 85q79 45 171 45q128 0 197.5 -85 t69.5 -227q0 -165 -74 -264t-193 -99z"/>
<glyph glyph-name="product" horiz-adv-x="687" unicode="∏" d="M103 -180v737h-89v102h671l-32 -102h-87v-737h-121v737h-222v-737h-120z"/>
<glyph glyph-name="summation" horiz-adv-x="609" unicode="∑" d="M9 -181l276 429l-260 411h567l-32 -102h-323l190 -307l-204 -328h354v-103h-568z"/>
<glyph glyph-name="minus" d="M40 201v99h471v-99h-471z" unicode="−"/>
<glyph glyph-name="radical" horiz-adv-x="694" unicode="√" d="M313 -122l-136 416l-98 -35l-32 92l207 76l83 -267q23 -79 36 -142h2q12 69 32 143l173 666h119l-263 -949h-123z"/>
<glyph glyph-name="infinity" horiz-adv-x="768" unicode="∞" d="M551 201q29 0 48 19.5t19 50.5q0 32 -18.5 51.5t-48.5 19.5q-29 0 -54 -18t-54 -53q59 -70 108 -70zM217 201q50 0 107 70q-58 71 -107 71q-30 0 -48.5 -19.5t-18.5 -51.5q0 -31 19 -50.5t48 -19.5zM205 95q-81 0 -128 51t-47 125q0 75 47 126t128 51q92 0 178 -101 q40 47 82.5 74t97.5 27q81 0 128 -51t47 -126q0 -74 -47 -125t-128 -51q-96 0 -180 101q-41 -48 -82.5 -74.5t-95.5 -26.5z"/>
<glyph glyph-name="approxequal" d="M81 287l-57 76q71 71 152 71q40 0 105 -28.5t97 -28.5q45 0 91 42l58 -76q-72 -71 -153 -71q-40 0 -105 28.5t-97 28.5q-25 0 -45 -9.5t-46 -32.5zM81 77l-57 76q71 71 152 71q40 0 105 -28.5t97 -28.5q45 0 91 42l58 -76q-72 -71 -153 -71q-40 0 -105 28.5t-97 28.5 q-25 0 -45 -9.5t-46 -32.5z" unicode="≈"/>
<glyph glyph-name="notequal" d="M101 8l44 91h-105v99h153l50 103h-203v99h251l42 85h119l-41 -85h100v-99h-148l-50 -103h198v-99h-246l-44 -91h-120z" unicode="≠"/>
<glyph glyph-name="lessequal" d="M40 0v99h471v-99h-471zM60 283v102l428 142v-99l-312 -93v-2l312 -94v-100z" unicode="≤"/>
<glyph glyph-name="greaterequal" d="M40 0v99h471v-99h-471zM63 139v100l311 94v2l-311 93v99l427 -142v-102z" unicode="≥"/>
<glyph glyph-name="lozenge" horiz-adv-x="480" unicode="◊" d="M240 98h2l88 191l-89 191h-2l-88 -191zM187 0l-137 289l137 289h106l137 -289l-137 -289h-106z"/>
</font>
</defs>
</svg>
